<?xml version="1.0" encoding="UTF-8"?>
<!DOCTYPE svg PUBLIC "-//W3C//DTD SVG 1.1//EN" "http://www.w3.org/Graphics/SVG/1.1/DTD/svg11.dtd">
<!-- Creator: CorelDRAW X7 -->
<svg xmlns="http://www.w3.org/2000/svg" xml:space="preserve" width="101.644mm" height="21.4161mm" version="1.1" style="shape-rendering:geometricPrecision; text-rendering:geometricPrecision; image-rendering:optimizeQuality; fill-rule:evenodd; clip-rule:evenodd"
viewBox="0 0 9967 2100"
 xmlns:xlink="http://www.w3.org/1999/xlink">
 <defs>
  <style type="text/css">
   <![CDATA[
    .str0 {stroke:black;stroke-width:8.64851}
    .fil1 {fill:black}
    .fil0 {fill:#01B0F1}
    .fil2 {fill:white}
   ]]>
  </style>
 </defs>
 <g id="Layer_x0020_1">
  <metadata id="CorelCorpID_0Corel-Layer"/>
  <g id="_3036673502944">
   <path class="fil0" d="M2113 815l235 0 0 -462c0,-49 -8,-113 42,-116 40,10 26,212 26,274 0,102 -1,203 0,304l235 0c0,-104 -16,-518 16,-574 62,-14 50,41 50,98l0 474 237 3c1,-140 15,-551 -13,-657 -58,-217 -341,-190 -402,-48 -19,-12 -26,-28 -41,-44 -48,-53 -110,-72 -186,-63 -99,11 -159,71 -186,151 -27,79 -13,540 -13,660z"/>
   <path class="fil0" d="M5199 809l237 6 0 -469c0,-49 -10,-112 45,-108 36,12 21,232 21,273 0,102 1,203 0,304l237 0c0,-107 -19,-517 15,-575 62,-11 51,42 51,99l0 474 235 3c0,-123 10,-570 -12,-656 -44,-175 -261,-206 -368,-95l-46 46c-52,-143 -336,-159 -401,43 -28,86 -14,529 -14,655z"/>
   <path class="fil0" d="M3799 815l238 0c0,-117 -5,-489 2,-579 51,0 109,-5 121,40 17,63 -34,79 -88,79 -6,50 -2,129 -2,183 0,49 91,219 114,276l248 0 -136 -330c171,-91 147,-462 -173,-462l-324 0 0 793z"/>
   <path class="fil0" d="M3078 815l238 0 1 -189 66 0 0 -208 -66 0c-4,-60 -14,-162 38,-179 78,-26 66,88 66,140 0,145 -1,291 0,436l236 0c1,-176 8,-373 -1,-544 -9,-184 -97,-275 -287,-269 -167,5 -272,98 -287,262 -16,163 -4,382 -4,551z"/>
   <path class="fil0" d="M4496 813l236 3 1 -189 67 -1 0 -208 -67 -1c-3,-59 -15,-158 38,-177 78,-29 66,87 66,139 0,146 0,291 0,436l238 0c-1,-175 9,-377 -3,-548 -12,-182 -96,-272 -288,-265 -166,6 -272,100 -286,262 -15,162 -2,380 -2,549z"/>
   <path class="fil1" d="M6047 1481c99,-20 186,58 199,148 15,109 -53,194 -142,210 -216,40 -301,-307 -57,-358zm-33 -232c-128,18 -209,80 -265,149 -67,83 -108,185 -88,327 49,355 518,474 738,197 232,-293 0,-728 -385,-673z"/>
   <path class="fil1" d="M7343 1481c100,-20 186,57 199,148 15,109 -53,194 -142,210 -216,40 -301,-307 -57,-358zm-33 -232c-232,32 -386,239 -353,476 49,355 519,474 738,197 65,-82 106,-187 87,-328 -31,-217 -233,-379 -472,-345z"/>
   <path class="fil1" d="M4155 1676l-241 -7c-19,34 -18,169 -171,173 -100,3 -169,-73 -176,-164 -18,-226 282,-275 332,-70l252 -17c2,-97 -98,-224 -142,-258 -285,-216 -698,-26 -685,347 17,495 778,567 831,-4z"/>
   <path class="fil1" d="M4986 2056l238 0 -1 -469c0,-45 -4,-107 48,-110 83,-4 54,193 54,262 0,105 0,210 0,315l236 3c0,-169 12,-386 -1,-549 -14,-167 -105,-269 -284,-265 -163,3 -273,103 -287,259 -15,166 -3,383 -3,554z"/>
   <path class="fil1" d="M8450 1612l-218 0 0 181c22,0 74,-8 87,12 28,73 -245,67 -228,-159 6,-71 47,-122 93,-146 75,-40 125,-19 196,2l0 -226c-12,-41 -299,-87 -458,133 -104,143 -96,360 5,503 38,54 101,113 181,143 245,91 489,-104 408,-342 -12,-36 -35,-85 -66,-101z"/>
   <path class="fil1" d="M9005 1494l0 324c0,276 266,238 454,238l0 -227c-101,0 -239,26 -226,-48 9,-50 125,-33 211,-33l0 -177 -141 0c-72,0 -74,-69 -13,-79 45,-7 117,0 167,-2l2 -224c-74,-13 -258,-7 -322,16 -77,29 -132,103 -132,212z"/>
   <path class="fil1" d="M3237 2056l0 -227c-54,0 -217,24 -226,-32 -12,-69 110,-49 210,-49l0 -177c-61,0 -152,12 -192,-17 -10,-57 20,-63 72,-64 44,-1 90,2 134,0l2 -224c-48,-9 -155,-4 -209,-3 -68,0 -116,14 -164,48 -96,66 -81,199 -81,342 0,150 -19,267 76,348 86,74 249,55 378,55z"/>
   <path class="fil1" d="M2115 1490l177 0c7,60 2,473 2,566l238 0c0,-118 -5,-474 2,-566l178 0 0 -227 -603 0 6 227z"/>
   <path class="fil1" d="M9553 1822l0 230c96,26 152,42 248,-7 58,-29 118,-92 139,-165 26,-95 2,-168 -38,-243 -16,-30 -78,-116 -1,-153 23,-11 42,-3 66,0l0 -214c-12,-46 -312,-61 -362,195 -38,192 123,283 67,352 -33,40 -76,20 -119,5z"/>
   <path class="fil1" d="M4267 2054l237 2 0 -298 62 -2c7,-50 3,-154 3,-210l-64 -1 -1 -282 -237 0 0 791z"/>
   <path class="fil1" d="M6585 1779c0,219 144,291 335,275l0 -226c-113,-20 -99,3 -99,-234 0,-110 0,-219 0,-328 -52,-7 -177,-3 -236,-3l0 516z"/>
   <polygon class="fil1" points="8626,2056 8863,2056 8863,1263 8626,1263 "/>
   <polygon class="fil1" points="4609,2056 4820,2056 4844,2054 4844,1266 4820,1262 4609,1263 "/>
   <polygon class="fil0 str0" points="14,521 909,1038 1805,522 900,16 "/>
   <polygon class="fil0 str0" points="4,1567 900,2092 909,1038 14,521 "/>
   <polygon class="fil0 str0" points="1801,1573 1805,522 909,1038 900,2092 "/>
   <path class="fil2" d="M1198 657l17 10 174 105c7,4 12,12 12,20 0,13 -11,24 -24,24 -4,0 -8,-2 -12,-4l-150 -90 1 720 0 0c0,13 -10,23 -23,23 -13,0 -23,-10 -23,-23l-2 -748 -167 -101 -6 -260 -85 -54 -663 377 2 767 267 153c13,-12 30,-19 49,-19 40,0 73,33 73,73 0,40 -33,72 -73,72 -40,0 -73,-32 -73,-72 0,-5 1,-9 1,-13l-290 -167 -3 -821 711 -404 130 82 6 259 151 91zm-631 934c22,0 40,18 40,40 0,22 -18,40 -40,40 -22,0 -40,-18 -40,-40 0,-22 18,-40 40,-40zm682 -1175c22,0 40,18 40,40 0,22 -18,40 -40,40 -22,0 -40,-18 -40,-40 0,-22 18,-40 40,-40zm2 -33c40,0 72,33 72,73 0,4 0,9 -1,13l288 166 -1 818 -707 401 -130 -80 -4 -1073 -161 353 -131 -201 -1 487 0 0c0,12 -11,23 -23,23 -13,0 -24,-11 -24,-23l0 -1 0 0 0 -564c0,0 0,0 0,-1 0,-13 11,-23 24,-23 8,0 16,4 20,11l0 0 128 195 169 -370 1 0c3,-8 11,-13 21,-13 12,0 23,10 23,23 0,1 0,2 0,2l0 0 5 1149 84 52 659 -374 1 -764 -263 -152c-13,12 -31,19 -49,19 -41,0 -73,-33 -73,-73 0,-40 32,-73 73,-73z"/>
  </g>
 </g>
</svg>
