<?xml version="1.0" encoding="UTF-8"?>
<!DOCTYPE svg PUBLIC "-//W3C//DTD SVG 1.1//EN" "http://www.w3.org/Graphics/SVG/1.1/DTD/svg11.dtd">
<!-- Creator: CorelDRAW X7 -->
<svg xmlns="http://www.w3.org/2000/svg" xml:space="preserve" width="10.7652mm" height="12.7mm" version="1.1" style="shape-rendering:geometricPrecision; text-rendering:geometricPrecision; image-rendering:optimizeQuality; fill-rule:evenodd; clip-rule:evenodd"
viewBox="0 0 6 7"
 xmlns:xlink="http://www.w3.org/1999/xlink">
 <defs>
  <style type="text/css">
   <![CDATA[
    .fil0 {fill:#01B0F0}
   ]]>
  </style>
 </defs>
 <g id="Layer_x0020_1">
  <metadata id="CorelCorpID_0Corel-Layer"/>
  <g id="_2362436171424">
   <path class="fil0" d="M1 5c0,0 0,0 0,0 0,0 0,0 1,0l0 1c0,0 0,0 0,0 0,1 0,1 0,1l0 0c0,0 1,-1 1,-1l0 -1 0 0 0 1c0,0 0,0 0,0 0,1 0,1 0,1l1 0c0,0 0,0 0,0 0,0 0,0 0,-1 0,0 0,0 0,0l0 -1c0,0 0,0 1,0 0,0 0,0 0,0l0 -3 -4 0 0 3z"/>
   <path class="fil0" d="M3 1c0,0 1,0 1,0 0,0 0,0 0,0 0,0 -1,0 -1,0zm-1 0c0,0 0,0 0,0 0,0 0,0 0,0 0,0 0,0 0,0 0,0 0,0 0,0zm0 -1c0,0 0,1 0,1 -1,0 -1,0 -1,1 0,0 0,0 0,0l4 0c0,0 0,0 0,0 -1,-1 -1,-1 -1,-1 0,0 0,0 0,0 0,0 0,0 0,-1 0,0 0,0 0,0 0,0 0,0 0,0 0,0 0,0 0,0 0,0 0,0 0,1l-1 -1c0,0 0,0 -1,0l0 1c0,-1 0,-1 0,-1 0,0 0,0 0,0z"/>
   <path class="fil0" d="M5 3l0 1c0,0 0,1 0,1 0,0 0,0 0,0 1,-1 1,-1 1,-1l0 -2c0,0 0,0 -1,0 0,0 0,0 0,0 0,0 0,0 0,1z"/>
   <path class="fil0" d="M0 3l0 1c0,0 0,0 0,0 0,1 0,1 0,1 0,0 0,0 1,0 0,0 0,0 0,0 0,0 0,-1 0,-1 0,0 0,0 0,0l0 -1c0,-1 0,-1 -1,-1 0,0 0,0 0,1z"/>
  </g>
 </g>
</svg>
