<?xml version="1.0" encoding="UTF-8"?>
<!DOCTYPE svg PUBLIC "-//W3C//DTD SVG 1.1//EN" "http://www.w3.org/Graphics/SVG/1.1/DTD/svg11.dtd">
<!-- Creator: CorelDRAW X7 -->
<svg xmlns="http://www.w3.org/2000/svg" xml:space="preserve" width="15.5068mm" height="12.7mm" version="1.1" style="shape-rendering:geometricPrecision; text-rendering:geometricPrecision; image-rendering:optimizeQuality; fill-rule:evenodd; clip-rule:evenodd"
viewBox="0 0 14 12"
 xmlns:xlink="http://www.w3.org/1999/xlink">
 <defs>
  <style type="text/css">
   <![CDATA[
    .fil0 {fill:#01B0F0}
   ]]>
  </style>
 </defs>
 <g id="Layer_x0020_1">
  <metadata id="CorelCorpID_0Corel-Layer"/>
  <g id="_2362511125456">
   <g id="_2362504066256">
    <path class="fil0" d="M4 6l1 1c1,0 1,1 1,1l-1 0c0,0 0,0 0,0 0,0 0,0 0,0 0,1 0,1 0,1l-1 0c0,1 0,1 0,1 -1,0 -1,-1 -1,-2 0,0 0,-1 0,-1 0,0 -1,1 -1,1l0 0c0,0 -1,0 0,-1 0,0 1,-1 1,-1 0,-1 -1,-1 -1,-2 0,0 0,0 0,0 0,0 0,0 1,0 0,0 0,1 0,1 0,-1 0,-2 0,-2 0,-1 1,-1 1,-1l1 1c1,1 1,1 0,2l-1 1c0,0 0,0 0,0l0 0zm-4 -2l0 4c0,2 2,4 3,4 1,0 2,0 2,-1 1,0 2,-1 2,-1 0,-1 0,-1 0,-2l0 -4c0,-1 0,-2 -1,-3 0,-1 -1,-1 -2,-1 -1,0 -1,0 -2,0 -1,1 -1,1 -2,2 0,0 0,1 0,2z"/>
    <path class="fil0" d="M11 0c0,1 0,1 0,1 0,0 1,0 1,0 0,1 0,1 1,2 0,0 0,1 0,2 0,1 0,1 0,2 0,1 0,1 0,2 0,0 -1,1 -1,1 0,0 0,0 0,0 0,1 -1,1 -1,1 0,0 0,0 0,0 0,1 0,1 0,1 1,-1 2,-1 2,-2 1,-1 1,-3 1,-4 0,-1 0,-1 0,-2 0,-1 -1,-2 -2,-3 0,0 0,-1 0,-1 -1,0 -1,0 -1,0l0 0z"/>
    <path class="fil0" d="M10 2c0,0 0,0 0,1 0,0 0,0 0,0l1 0c1,2 1,4 0,6 -1,0 -1,0 -1,0l0 0c0,0 -1,1 -1,1 0,0 1,0 1,0 0,0 0,0 1,0 0,0 0,0 0,-1 0,0 1,-1 1,-2 0,-1 0,-3 -1,-4l0 -1c-1,0 -1,0 -1,0 0,0 0,0 0,0z"/>
    <path class="fil0" d="M9 6c0,1 -1,2 -1,2 0,0 0,0 1,0 0,0 1,-1 1,-1 0,-1 0,-3 -1,-3 0,-1 0,-1 0,-1 -1,0 -1,1 -1,1 0,0 1,0 1,0 0,0 0,0 0,1 0,0 0,0 0,1l0 0z"/>
    <path class="fil0" d="M4 5c0,0 1,-1 1,-1l-1 0c0,0 0,-1 0,-1l0 2z"/>
    <path class="fil0" d="M4 8c0,0 0,0 0,0 0,0 1,0 1,0 0,0 0,0 0,0 0,0 0,0 0,0 0,-1 0,-1 -1,-1 0,0 0,0 0,0l0 1 0 0z"/>
   </g>
  </g>
 </g>
</svg>
