<?xml version="1.0" encoding="UTF-8"?>
<!DOCTYPE svg PUBLIC "-//W3C//DTD SVG 1.1//EN" "http://www.w3.org/Graphics/SVG/1.1/DTD/svg11.dtd">
<!-- Creator: CorelDRAW X7 -->
<svg xmlns="http://www.w3.org/2000/svg" xml:space="preserve" width="12.7mm" height="12.7mm" version="1.1" style="shape-rendering:geometricPrecision; text-rendering:geometricPrecision; image-rendering:optimizeQuality; fill-rule:evenodd; clip-rule:evenodd"
viewBox="0 0 9 9"
 xmlns:xlink="http://www.w3.org/1999/xlink">
 <defs>
  <style type="text/css">
   <![CDATA[
    .fil0 {fill:#01B0F0}
   ]]>
  </style>
 </defs>
 <g id="Layer_x0020_1">
  <metadata id="CorelCorpID_0Corel-Layer"/>
  <g id="_2362536042512">
   <g id="_2362571266704">
    <path class="fil0" d="M2 0l-1 0c0,0 -1,1 -1,1l0 1 0 1 0 1 0 1 0 1 0 1 0 1c0,1 1,1 1,1l1 0 1 0 1 0 1 0 1 0 1 0 1 0c1,0 1,0 1,-1l0 -1 0 -1 0 -1 0 -1 0 -1 0 -1 0 -1c0,0 0,-1 -1,-1l-1 0 -1 0 -1 0 -1 0 -1 0 -1 0zm6 1l-7 0c0,0 0,0 0,0l0 7c0,0 0,1 0,1l7 0c0,0 1,-1 1,-1l0 -7c0,0 -1,0 -1,0z"/>
    <g>
     <path class="fil0" d="M2 2l5 0 0 3 -1 0c0,0 0,0 0,0l0 1 0 0c0,0 0,0 0,0l0 1 -3 0 0 -1c0,0 0,0 0,0l0 0 0 -1c0,0 0,0 0,0l-1 0 0 -3zm1 3c0,1 -1,1 0,1 0,0 0,0 0,0 0,0 0,0 0,0 0,1 0,1 0,1l3 0c0,0 0,0 0,0 0,0 0,0 0,-1 0,0 0,0 0,0 1,0 1,0 1,0 0,0 0,-1 0,-1 0,0 0,0 0,0 0,0 0,0 0,0 0,0 0,0 0,-1 0,0 0,-1 0,-1 0,-1 1,-1 -1,-1l-4 0c0,0 0,0 0,1 0,0 0,1 0,1 0,1 0,1 0,1 0,0 0,0 0,0 0,0 0,0 1,0z"/>
     <path class="fil0" d="M6 3c0,0 0,0 0,0 0,0 0,0 0,0 0,1 0,1 0,1 1,0 1,0 1,-1 0,0 0,0 -1,0 0,0 0,0 0,0z"/>
     <path class="fil0" d="M3 3c0,0 0,0 0,0 0,0 0,0 0,0 0,1 0,1 0,1 0,0 0,0 0,0l0 -1c0,0 0,0 0,0 0,0 0,0 0,0z"/>
     <path class="fil0" d="M5 3c-1,0 -1,0 -1,0 0,0 0,0 0,1 0,0 0,0 1,0 0,0 0,0 0,0l0 -1c0,0 0,0 0,0 0,0 0,0 0,0z"/>
     <path class="fil0" d="M5 3c0,0 0,0 0,0l0 1c0,0 0,0 0,0 1,0 1,0 1,0l0 -1c0,0 0,0 -1,0 0,0 0,0 0,0z"/>
     <path class="fil0" d="M4 3c-1,0 -1,0 -1,0l0 1c0,0 1,0 1,0 0,0 0,0 0,0l0 -1c0,0 0,0 0,0 0,0 0,0 0,0z"/>
    </g>
   </g>
  </g>
 </g>
</svg>
