<?xml version="1.0" encoding="UTF-8"?>
<!DOCTYPE svg PUBLIC "-//W3C//DTD SVG 1.1//EN" "http://www.w3.org/Graphics/SVG/1.1/DTD/svg11.dtd">
<!-- Creator: CorelDRAW X7 -->
<svg xmlns="http://www.w3.org/2000/svg" xml:space="preserve" width="25.3434mm" height="25.4mm" version="1.1" style="shape-rendering:geometricPrecision; text-rendering:geometricPrecision; image-rendering:optimizeQuality; fill-rule:evenodd; clip-rule:evenodd"
viewBox="0 0 2534 2540"
 xmlns:xlink="http://www.w3.org/1999/xlink">
 <defs>
  <style type="text/css">
   <![CDATA[
    .fil0 {fill:white}
   ]]>
  </style>
 </defs>
 <g id="Layer_x0020_1">
  <metadata id="CorelCorpID_0Corel-Layer"/>
  <g id="_1891672805488">
   <path class="fil0" d="M1752 1554l0 976c108,4 224,1 333,1 94,0 254,9 338,-5 91,-6 109,-97 109,-171 -1,-349 9,-2200 -6,-2251 -23,-82 -79,-101 -178,-101l-1702 0c-91,0 -499,-11 -552,8 -82,29 -92,85 -92,188l0 1983c0,265 -36,351 213,351 378,0 758,-3 1136,0l2 -979 -329 0 -1 -381 328 -2c25,-181 -57,-468 136,-656 158,-153 392,-139 652,-115l0 342c-270,9 -392,-52 -391,221 0,59 -6,154 2,208l375 0 -48 381 -325 2z"/>
   <path class="fil0" d="M2423 2526c-84,14 -244,5 -338,5 -109,0 -225,3 -333,-1l0 -976c-11,16 -7,16 -7,48l0 930c47,12 275,4 340,4 51,0 318,14 338,-10z"/>
  </g>
 </g>
</svg>
