<?xml version="1.0" encoding="UTF-8"?>
<!DOCTYPE svg PUBLIC "-//W3C//DTD SVG 1.1//EN" "http://www.w3.org/Graphics/SVG/1.1/DTD/svg11.dtd">
<!-- Creator: CorelDRAW X7 -->
<svg xmlns="http://www.w3.org/2000/svg" xml:space="preserve" width="25.4138mm" height="25.4002mm" version="1.1" style="shape-rendering:geometricPrecision; text-rendering:geometricPrecision; image-rendering:optimizeQuality; fill-rule:evenodd; clip-rule:evenodd"
viewBox="0 0 2541 2540"
 xmlns:xlink="http://www.w3.org/1999/xlink">
 <defs>
  <style type="text/css">
   <![CDATA[
    .fil0 {fill:white}
   ]]>
  </style>
 </defs>
 <g id="Layer_x0020_1">
  <metadata id="CorelCorpID_0Corel-Layer"/>
  <path class="fil0" d="M379 952l373 1c8,23 3,258 3,302 0,72 3,877 -1,908l-376 -1 1 -1210zm988 570l-2 640c-18,4 -347,4 -375,1 -6,-34 -1,-114 -1,-153 0,-122 -4,-1039 2,-1057 29,-5 251,-1 315,-1 12,0 32,-3 42,3l2 164c22,-7 50,-113 216,-172 96,-34 236,-30 332,3 157,53 222,172 250,323 6,36 21,142 14,176 4,5 2,-2 4,10 0,2 -1,10 -1,12 0,8 0,15 1,23l-1 668c-19,5 -345,4 -379,1l0 -657c4,-65 -17,-145 -47,-188 -32,-45 -90,-70 -172,-64 -151,11 -202,136 -200,268zm-830 -1168c128,-19 231,75 246,186 19,129 -77,230 -185,246 -130,18 -231,-76 -247,-184 -19,-132 75,-232 186,-248zm-534 2014c4,86 72,152 150,167 37,8 112,4 155,4l1744 0c71,0 259,3 316,-1 84,-5 153,-71 168,-149 8,-40 3,-112 3,-155l0 -1745c0,-101 5,-216 0,-316 -5,-88 -71,-152 -150,-167 -39,-8 -112,-4 -155,-4l-1745 0c-100,0 -217,-5 -315,1 -87,5 -154,70 -169,148 -7,38 -3,114 -3,156l0 1745c0,102 -5,215 1,316z"/>
 </g>
</svg>
