<?xml version="1.0" encoding="UTF-8"?>
<!DOCTYPE svg PUBLIC "-//W3C//DTD SVG 1.1//EN" "http://www.w3.org/Graphics/SVG/1.1/DTD/svg11.dtd">
<!-- Creator: CorelDRAW X7 -->
<svg xmlns="http://www.w3.org/2000/svg" xml:space="preserve" width="22.3038mm" height="25.6545mm" version="1.1" style="shape-rendering:geometricPrecision; text-rendering:geometricPrecision; image-rendering:optimizeQuality; fill-rule:evenodd; clip-rule:evenodd"
viewBox="0 0 2239 2576"
 xmlns:xlink="http://www.w3.org/1999/xlink">
 <defs>
  <style type="text/css">
   <![CDATA[
    .str0 {stroke:black;stroke-width:17.7016}
    .fil0 {fill:#01B0F1}
    .fil1 {fill:white}
   ]]>
  </style>
 </defs>
 <g id="Layer_x0020_1">
  <metadata id="CorelCorpID_0Corel-Layer"/>
  <g id="_2198554638976">
   <polygon class="fil0 str0" points="20,631 1121,1265 2221,632 1109,10 "/>
   <polygon class="fil0 str0" points="9,1915 1109,2560 1121,1265 20,631 "/>
   <polygon class="fil0 str0" points="2217,1923 2221,632 1121,1265 1109,2560 "/>
   <path class="fil1" d="M1475 797l21 13 214 129c9,4 14,14 14,24 0,16 -13,29 -28,29 -6,0 -11,-1 -15,-4l-185 -111 2 884 0 0c0,16 -13,29 -29,29 -16,0 -29,-13 -29,-29l-2 -919 -205 -123 -8 -319 -104 -67 -814 463 3 942 327 188c16,-14 37,-23 61,-23 49,0 89,40 89,89 0,49 -40,89 -89,89 -50,0 -90,-40 -90,-89 0,-5 1,-10 2,-15l-357 -206 -3 -1008 873 -497 159 102 8 318 185 111zm-775 1148c28,0 50,22 50,49 0,27 -22,49 -50,49 -27,0 -49,-22 -49,-49 0,-27 22,-49 49,-49zm838 -1444c27,0 49,22 49,49 0,28 -22,50 -49,50 -27,0 -49,-22 -49,-50 0,-27 22,-49 49,-49zm2 -40c49,0 89,40 89,89 0,6 0,11 -1,16l354 204 -2 1005 -869 493 -159 -99 -4 -1317 -199 433 -161 -247 -1 598 0 0c0,15 -13,28 -29,28 -16,0 -28,-13 -28,-28l0 -1 0 0 0 -693c0,0 0,-1 0,-1 0,-16 13,-29 28,-29 11,0 20,6 25,14l0 0 157 240 209 -455 0 0c5,-9 14,-16 26,-16 16,0 28,13 28,29 0,1 0,1 0,2l0 0 6 1411 103 64 810 -459 2 -939 -324 -187c-16,15 -37,24 -60,24 -49,0 -89,-40 -89,-90 0,-49 40,-89 89,-89z"/>
  </g>
 </g>
</svg>
