<?xml version="1.0" encoding="UTF-8"?>
<!DOCTYPE svg PUBLIC "-//W3C//DTD SVG 1.1//EN" "http://www.w3.org/Graphics/SVG/1.1/DTD/svg11.dtd">
<!-- Creator: CorelDRAW X7 -->
<svg xmlns="http://www.w3.org/2000/svg" xml:space="preserve" width="137.418mm" height="92.657mm" version="1.1" style="shape-rendering:geometricPrecision; text-rendering:geometricPrecision; image-rendering:optimizeQuality; fill-rule:evenodd; clip-rule:evenodd"
viewBox="0 0 11158 7524"
 xmlns:xlink="http://www.w3.org/1999/xlink">
 <defs>
  <style type="text/css">
   <![CDATA[
    .str0 {stroke:black;stroke-width:7.16173}
    .fil0 {fill:#FEFEFE}
    .fil1 {fill:black}
    .fil2 {fill:#01B0F1}
    .fil3 {fill:white}
   ]]>
  </style>
 </defs>
 <g id="Layer_x0020_1">
  <metadata id="CorelCorpID_0Corel-Layer"/>
  <g id="_2695869301968">
   <path class="fil0" d="M2791 5730l335 0 0 -657c-1,-69 -13,-159 60,-164 56,14 36,301 36,390 0,144 -1,288 0,431l333 0c0,-148 -21,-736 23,-816 89,-20 72,60 71,140l0 673 336 4c2,-198 23,-782 -17,-932 -82,-308 -485,-270 -572,-69 -26,-17 -37,-40 -58,-63 -67,-74 -156,-101 -264,-89 -140,16 -225,101 -264,214 -38,112 -19,767 -19,938z"/>
   <path class="fil0" d="M7175 5721l336 9 0 -666c-1,-70 -14,-159 63,-154 51,18 31,330 31,389 0,144 0,288 0,432l335 -1c0,-153 -26,-734 22,-817 89,-16 72,61 72,141l0 673 335 4c-1,-175 14,-809 -17,-932 -63,-248 -372,-292 -523,-134l-65 65c-75,-204 -477,-226 -570,61 -40,122 -19,751 -19,930z"/>
   <path class="fil0" d="M5186 5730l338 0c0,-166 -7,-695 2,-822 73,0 156,-8 173,56 24,90 -48,113 -125,113 -9,71 -4,183 -3,259 0,70 129,312 161,392l353 1 -193 -469c243,-130 209,-656 -246,-656l-460 0 0 1126z"/>
   <path class="fil0" d="M4162 5730l338 0 1 -268 95 0 0 -296 -94 -1c-6,-84 -21,-229 53,-253 112,-37 94,124 94,199 0,206 -1,413 0,619l336 0c1,-250 11,-530 -1,-773 -14,-261 -139,-390 -409,-381 -236,7 -386,139 -408,371 -22,232 -5,543 -5,783z"/>
   <path class="fil0" d="M6175 5727l336 4 1 -268 95 -2 0 -295 -94 -1c-5,-84 -22,-225 53,-252 111,-41 94,124 94,198 0,206 0,413 0,620l338 -1c-1,-248 13,-535 -4,-779 -18,-258 -136,-385 -410,-375 -235,8 -385,141 -406,371 -20,231 -3,540 -3,780z"/>
  </g>
  <g id="_2695869302768">
   <path class="fil1" d="M5592 6676c140,-29 265,82 282,210 21,155 -75,275 -201,298 -307,57 -428,-436 -81,-508zm-47 -330c-182,25 -297,114 -377,212 -95,118 -153,263 -125,464 70,504 737,674 1048,280 329,-416 1,-1033 -546,-956z"/>
   <path class="fil1" d="M7433 6676c141,-29 264,81 281,210 22,155 -75,275 -200,298 -308,57 -429,-436 -81,-508zm-48 -330c-329,46 -548,339 -501,676 70,505 737,674 1047,280 93,-117 152,-265 124,-465 -43,-309 -331,-539 -670,-491z"/>
   <path class="fil1" d="M2905 6952l-342 -9c-27,48 -26,239 -244,245 -141,4 -239,-103 -249,-232 -26,-322 401,-391 472,-100l357 -24c3,-138 -138,-318 -201,-366 -405,-308 -991,-37 -973,492 24,704 1105,805 1180,-6z"/>
   <path class="fil1" d="M4084 7493l338 0 0 -667c0,-64 -6,-152 67,-156 119,-5 78,275 78,372 0,149 0,298 0,447l334 4c0,-240 17,-548 -1,-779 -20,-237 -149,-382 -403,-376 -232,4 -387,146 -408,368 -21,235 -5,544 -5,787z"/>
   <path class="fil1" d="M9005 6862l-310 0 0 257c31,0 105,-11 123,17 41,104 -347,95 -323,-226 7,-101 66,-173 132,-208 107,-56 177,-26 278,3l0 -320c-18,-58 -424,-125 -651,188 -147,204 -135,511 7,715 54,76 144,161 257,203 349,129 695,-148 580,-486 -18,-51 -49,-120 -93,-143z"/>
   <path class="fil1" d="M9792 6695l0 460c0,390 377,338 645,338l0 -323c-143,0 -339,36 -321,-68 13,-72 178,-47 300,-47l0 -251 -200 0c-102,0 -106,-98 -19,-112 65,-11 167,-1 237,-4l4 -318c-107,-18 -367,-10 -458,23 -110,41 -188,146 -188,302z"/>
   <path class="fil1" d="M1602 7493l0 -323c-77,0 -308,33 -322,-46 -17,-98 157,-69 299,-69l0 -251c-87,0 -216,16 -272,-24 -15,-82 27,-90 101,-92 63,-1 128,3 191,0l3 -318c-69,-12 -220,-5 -297,-4 -97,1 -165,21 -233,68 -137,94 -116,283 -116,486 0,212 -26,379 108,494 122,105 354,79 538,79z"/>
   <path class="fil1" d="M8 6689l251 0c11,84 4,671 4,804l338 0c0,-168 -7,-674 2,-804l253 0 0 -323 -856 0 8 323z"/>
   <path class="fil1" d="M10571 7160l0 327c135,37 216,59 352,-10 82,-41 168,-131 197,-235 37,-135 4,-239 -54,-345 -23,-42 -110,-164 -1,-218 32,-15 59,-4 93,1l0 -305c-17,-65 -443,-85 -514,278 -53,273 175,402 96,499 -47,58 -109,30 -169,8z"/>
   <path class="fil1" d="M3065 7489l336 4 0 -424 88 -3c10,-71 4,-219 4,-298l-91 -1 -1 -401 -336 1 0 1122z"/>
   <path class="fil1" d="M6355 7098c0,311 206,414 477,392l0 -322c-161,-28 -141,5 -141,-333 0,-155 0,-310 0,-465 -73,-10 -252,-4 -336,-4l0 732z"/>
   <polygon class="fil1" points="9255,7493 9590,7493 9590,6366 9255,6366 "/>
   <polygon class="fil1" points="3549,7493 3850,7493 3884,7490 3884,6370 3850,6365 3549,6366 "/>
  </g>
  <g id="_2695869306128">
   <polygon class="fil2 str0" points="3825,998 5588,2015 7352,1000 5569,4 "/>
   <polygon class="fil2 str0" points="3807,3056 5569,4090 5588,2015 3825,998 "/>
   <polygon class="fil2 str0" points="7344,3069 7352,1000 5588,2015 5569,4090 "/>
   <path class="fil3" d="M6155 1265l34 20 343 207c14,8 23,22 23,39 0,26 -20,46 -46,46 -9,0 -17,-2 -24,-6l-296 -179 3 1417 0 1c0,25 -21,46 -46,46 -25,0 -46,-21 -46,-46l-3 -1473 -329 -198 -12 -511 -167 -106 -1305 741 5 1509 524 302c26,-23 60,-37 97,-37 79,0 143,64 143,143 0,78 -64,143 -143,143 -79,0 -143,-65 -143,-143 0,-9 1,-17 2,-25l-572 -330 -5 -1615 1400 -795 254 162 13 510 296 178zm-1241 1839c44,0 79,35 79,79 0,43 -35,79 -79,79 -43,0 -79,-36 -79,-79 0,-44 36,-79 79,-79zm1343 -2313c43,0 78,35 78,79 0,43 -35,79 -78,79 -44,0 -79,-36 -79,-79 0,-44 35,-79 79,-79zm2 -64c79,0 143,64 143,143 0,8 0,17 -2,25l567 326 -3 1611 -1392 789 -254 -158 -8 -2111 -318 694 -257 -395 -2 958 0 0c0,25 -21,45 -46,45 -26,0 -46,-20 -46,-46l0 0 0 0 0 -1110c0,-1 0,-2 0,-2 0,-26 21,-46 46,-46 17,0 32,9 40,22l0 0 251 384 334 -729 1 0c7,-15 23,-26 41,-26 25,0 46,21 46,46 0,2 0,3 0,4l0 0 10 2261 165 103 1297 -737 3 -1504 -519 -299c-26,23 -59,38 -97,38 -79,0 -143,-64 -143,-143 0,-79 64,-143 143,-143z"/>
  </g>
 </g>
</svg>
