<?xml version="1.0" encoding="UTF-8"?>
<!DOCTYPE svg PUBLIC "-//W3C//DTD SVG 1.1//EN" "http://www.w3.org/Graphics/SVG/1.1/DTD/svg11.dtd">
<!-- Creator: CorelDRAW X7 -->
<svg xmlns="http://www.w3.org/2000/svg" xml:space="preserve" width="609.86mm" height="76.7282mm" version="1.1" style="shape-rendering:geometricPrecision; text-rendering:geometricPrecision; image-rendering:optimizeQuality; fill-rule:evenodd; clip-rule:evenodd"
viewBox="0 0 91333 11491"
 xmlns:xlink="http://www.w3.org/1999/xlink">
 <defs>
  <style type="text/css">
   <![CDATA[
    .str0 {stroke:black;stroke-width:79.2387}
    .fil0 {fill:#01B0F1}
    .fil1 {fill:white}
   ]]>
  </style>
 </defs>
 <g id="Layer_x0020_1">
  <metadata id="CorelCorpID_0Corel-Layer"/>
  <g id="_2387250149856">
   <polygon class="fil0 str0" points="91,2813 4999,5645 9910,2819 4946,45 "/>
   <polygon class="fil0 str0" points="40,8542 4946,11422 4999,5645 91,2813 "/>
   <polygon class="fil0 str0" points="9887,8578 9910,2819 4999,5645 4946,11422 "/>
   <path class="fil1" d="M6579 3556l93 55 956 576c38,22 64,63 64,111 0,70 -57,128 -128,128 -24,0 -48,-7 -67,-19l-825 -496 9 3945 0 0c0,71 -57,128 -128,128 -71,0 -128,-57 -128,-128l-9 -4100 -914 -550 -36 -1424 -464 -295 -3632 2064 13 4201 1460 841c71,-65 165,-105 269,-105 220,0 398,178 398,398 0,220 -178,398 -398,398 -220,0 -398,-178 -398,-398 0,-23 2,-46 6,-69l-1593 -917 -14 -4498 3897 -2214 709 452 35 1419 825 497 0 0zm-3455 5119c121,0 220,98 220,220 0,121 -99,219 -220,219 -121,0 -220,-98 -220,-219 0,-122 99,-220 220,-220zm3737 -6439c121,0 220,98 220,220 0,121 -99,219 -220,219 -121,0 -220,-98 -220,-219 0,-122 99,-220 220,-220zm8 -179c220,0 398,178 398,398 0,24 -2,47 -6,70l1579 909 -9 4484 -3875 2199 -709 -443 -20 -5875 -886 1931 -716 -1099 -7 2665 0 0c0,71 -57,128 -128,128 -70,0 -128,-57 -128,-128l0 0 0 0 1 -3092c0,-2 0,-4 0,-6 0,-71 57,-128 128,-128 47,0 88,25 110,63l0 0 701 1069 930 -2029 1 0c21,-43 64,-73 115,-73 71,0 128,58 128,128 0,4 0,8 0,11l0 0 27 6293 459 287 3613 -2050 9 -4187 -1447 -833c-70,65 -165,104 -268,104 -220,0 -398,-178 -398,-398 0,-220 178,-398 398,-398l0 0z"/>
   <g>
    <path class="fil0" d="M12787 8296l0 -3699c0,-457 138,-830 416,-1122 279,-290 639,-435 1083,-435 526,0 930,242 1213,723 173,-261 359,-445 557,-556 198,-111 442,-167 733,-167 462,0 816,145 1062,435 245,292 368,708 368,1255l0 3566 -1523 0 0 -3338c0,-162 -13,-270 -40,-322 -27,-53 -81,-80 -163,-80 -153,0 -228,126 -228,376l0 3364 -1524 0 0 -3338c0,-159 -14,-267 -41,-321 -28,-54 -82,-81 -163,-81 -151,0 -227,134 -227,402l0 3338 -1523 0 0 0zm8210 -2578l0 1355 -439 0 0 1223 -1523 0 0 -3264c0,-630 172,-1119 517,-1468 345,-349 829,-524 1454,-524 603,0 1048,158 1336,475 289,317 432,804 432,1465l0 3316 -1523 0 0 -3215c0,-198 -24,-334 -72,-410 -49,-76 -135,-115 -259,-115 -241,0 -362,175 -362,525l0 637 439 0zm4223 -1177l0 3755 -1524 0 0 -5132 1954 0c595,0 1056,147 1385,443 365,333 547,752 547,1261 0,519 -225,958 -677,1315l879 2113 -1601 0 -740 -1652 0 -1318 121 0c319,0 479,-139 479,-417 0,-245 -184,-368 -555,-368l-268 0 0 0zm4934 1177l0 1355 -439 0 0 1223 -1524 0 0 -3264c0,-630 172,-1119 517,-1468 345,-349 830,-524 1455,-524 602,0 1047,158 1336,475 289,317 432,804 432,1465l0 3316 -1523 0 0 -3215c0,-198 -25,-334 -72,-410 -49,-76 -135,-115 -259,-115 -241,0 -362,175 -362,525l0 637 439 0 0 0zm2592 2578l0 -3699c0,-457 138,-830 416,-1122 279,-290 639,-435 1083,-435 526,0 929,242 1213,723 173,-261 359,-445 557,-556 198,-111 442,-167 733,-167 462,0 816,145 1062,435 245,292 368,708 368,1255l0 3566 -1524 0 0 -3338c0,-162 -12,-270 -39,-322 -27,-53 -81,-80 -163,-80 -153,0 -228,126 -228,376l0 3364 -1524 0 0 -3338c0,-159 -14,-267 -41,-321 -28,-54 -82,-81 -163,-81 -151,0 -227,134 -227,402l0 3338 -1523 0z"/>
    <path class="fil1" d="M43257 4641l0 3655 -1524 0 0 -3655 -1170 0 0 -1477 3855 0 0 1477 -1161 0zm4460 523l0 1139 -991 0c-135,0 -231,21 -286,60 -57,41 -85,109 -85,206 0,109 28,179 86,214 58,34 174,51 351,51l1025 0 0 1462 -1197 0c-564,0 -996,-135 -1295,-403 -299,-269 -447,-658 -447,-1165l0 -2011c0,-493 141,-875 423,-1147 283,-270 680,-406 1193,-406l1323 0 0 1477 -972 0c-260,0 -390,86 -390,257 0,100 31,169 92,207 63,40 173,59 331,59l839 0zm4444 625l1598 41c-106,828 -393,1468 -860,1920 -468,451 -1077,677 -1828,677 -765,0 -1405,-257 -1920,-768 -515,-513 -772,-1149 -772,-1909 0,-764 263,-1407 787,-1927 526,-522 1172,-783 1942,-783 756,0 1389,256 1894,766 351,353 600,845 745,1475l-1635 110c-183,-556 -531,-835 -1044,-835 -327,0 -596,113 -809,338 -212,225 -318,512 -318,859 0,335 104,612 313,830 209,219 472,328 791,328 324,0 582,-96 775,-290 192,-193 306,-471 341,-832l0 0zm4266 -786l0 1354 -423 0 0 1939 -1523 0 0 -5132 1523 0 0 1839 423 0zm1786 -1839l0 5132 -1524 0 0 -5132 1524 0zm920 5132l0 -3330c0,-583 175,-1049 525,-1400 349,-350 814,-526 1395,-526 580,0 1022,171 1329,511 306,340 460,830 460,1467l0 3278 -1523 0 0 -3278c0,-308 -112,-462 -336,-462 -217,0 -326,154 -326,462l0 3278 -1524 0 0 0zm7069 -5256c726,0 1349,265 1869,793 519,530 779,1162 779,1898 0,750 -261,1386 -784,1910 -524,524 -1160,786 -1909,786 -743,0 -1378,-263 -1904,-789 -526,-527 -789,-1162 -789,-1907 0,-751 265,-1388 794,-1908 530,-522 1179,-783 1944,-783zm-45 1516c-313,0 -579,116 -800,345 -220,230 -331,508 -331,833 0,324 111,602 333,832 221,230 488,345 798,345 316,0 584,-114 803,-344 220,-228 328,-506 328,-833 0,-327 -109,-606 -328,-834 -219,-229 -487,-344 -803,-344l0 0zm3305 -1392l1524 0 0 3049c0,239 38,397 114,476 77,80 228,118 454,118l78 0 0 1489 -405 0c-557,0 -989,-163 -1299,-487 -310,-325 -466,-775 -466,-1351l0 -3294 0 0zm5120 -124c726,0 1349,265 1868,793 520,530 780,1162 780,1898 0,750 -261,1386 -785,1910 -523,524 -1159,786 -1908,786 -744,0 -1379,-263 -1904,-789 -526,-527 -789,-1162 -789,-1907 0,-751 264,-1388 794,-1908 529,-522 1178,-783 1944,-783zm-45 1516c-313,0 -580,116 -800,345 -221,230 -331,508 -331,833 0,324 110,602 332,832 222,230 489,345 799,345 315,0 584,-114 803,-344 219,-228 328,-506 328,-833 0,-327 -109,-606 -328,-834 -219,-229 -488,-344 -803,-344l0 0zm5583 862l1454 0c313,389 469,799 469,1231 0,503 -183,924 -550,1266 -368,341 -819,512 -1355,512 -697,0 -1288,-264 -1774,-793 -486,-529 -730,-1173 -730,-1932 0,-762 248,-1396 743,-1902 495,-507 1113,-760 1854,-760 254,0 535,51 843,149l0 1529c-241,-108 -461,-162 -658,-162 -359,0 -652,112 -879,335 -227,222 -341,512 -341,867 0,363 105,652 317,865 212,212 496,319 855,319 230,0 344,-69 344,-207 0,-103 -76,-155 -228,-155l-364 0 0 -1162 0 0zm4069 -2254l0 5132 -1524 0 0 -5132 1524 0zm3759 2000l0 1139 -992 0c-134,0 -230,21 -286,60 -56,41 -84,109 -84,206 0,109 28,179 86,214 57,34 174,51 351,51l1025 0 0 1462 -1197 0c-564,0 -996,-135 -1295,-403 -299,-269 -448,-658 -448,-1165l0 -2011c0,-493 141,-875 424,-1147 283,-270 679,-406 1192,-406l1324 0 0 1477 -972 0c-261,0 -390,86 -390,257 0,100 31,169 92,207 63,40 173,59 331,59l839 0 0 0zm3385 -2023l0 1464c-110,-32 -196,-49 -255,-49 -115,0 -215,43 -297,129 -84,84 -125,187 -125,308 0,102 45,232 136,389l117 203c211,365 317,718 317,1059 0,498 -177,920 -533,1265 -355,345 -788,518 -1300,518 -246,0 -489,-58 -730,-172l0 -1485c145,94 275,141 388,141 133,0 243,-38 333,-114 88,-77 133,-173 133,-289 0,-74 -70,-238 -213,-491 -227,-401 -341,-801 -341,-1203 0,-483 172,-900 517,-1249 344,-350 756,-524 1234,-524 210,0 417,33 619,100l0 0z"/>
   </g>
  </g>
 </g>
</svg>
