<?xml version="1.0" encoding="UTF-8"?>
<!DOCTYPE svg PUBLIC "-//W3C//DTD SVG 1.1//EN" "http://www.w3.org/Graphics/SVG/1.1/DTD/svg11.dtd">
<!-- Creator: CorelDRAW X7 -->
<svg xmlns="http://www.w3.org/2000/svg" xml:space="preserve" width="22.621mm" height="26.047mm" version="1.1" style="shape-rendering:geometricPrecision; text-rendering:geometricPrecision; image-rendering:optimizeQuality; fill-rule:evenodd; clip-rule:evenodd"
viewBox="0 0 85 98"
 xmlns:xlink="http://www.w3.org/1999/xlink">
 <defs>
  <style type="text/css">
   <![CDATA[
    .str0 {stroke:black;stroke-width:0.33035}
    .fil0 {fill:#01B0F1}
    .fil1 {fill:white}
   ]]>
  </style>
 </defs>
 <g id="Layer_x0020_1">
  <metadata id="CorelCorpID_0Corel-Layer"/>
  <polygon class="fil0 str0" points="1,24 42,48 84,24 42,0 "/>
  <polygon class="fil0 str0" points="1,24 42,48 84,24 42,0 "/>
  <polygon class="fil0 str0" points="0,73 42,97 42,48 1,24 "/>
  <polygon class="fil0 str0" points="0,73 42,97 42,48 1,24 "/>
  <polygon class="fil0 str0" points="84,73 84,24 42,48 42,97 "/>
  <polygon class="fil0 str0" points="84,73 84,24 42,48 42,97 "/>
  <path class="fil1" d="M56 30l1 1 8 5c0,0 0,0 0,0 0,1 0,2 -1,2 0,0 0,0 0,-1l-7 -4 0 34 0 0c0,0 -1,1 -1,1 -1,0 -1,-1 -1,-1l0 -35 -8 -5 -1 -12 -3 -3 -31 18 0 36 12 7c1,0 1,-1 2,-1 2,0 4,2 4,4 0,2 -2,3 -4,3 -1,0 -3,-1 -3,-3 0,-1 0,-1 0,-1l-14 -8 0 -38 34 -19 6 4 0 12 7 4zm-30 44c2,0 2,1 2,2 0,1 0,2 -2,2 -1,0 -1,-1 -1,-2 0,-1 0,-2 1,-2zm32 -55c1,0 2,1 2,2 0,1 -1,2 -2,2 -1,0 -1,-1 -1,-2 0,-1 0,-2 1,-2zm0 -2c2,0 4,2 4,4 0,0 0,0 0,0l13 8 0 38 -33 19 -6 -4 0 -50 -8 17 -6 -10 0 23 0 0c0,1 0,1 -1,1 -1,0 -1,0 -1,-1l0 0 0 0 0 -26c0,0 0,0 0,0 0,-1 0,-1 1,-1 0,0 1,0 1,0l0 0 6 9 8 -17 0 0c0,0 0,-1 1,-1 1,0 1,1 1,1 0,0 0,0 0,0l0 0 0 54 4 3 31 -18 0 -36 -12 -7c-1,1 -2,1 -3,1 -1,0 -3,-1 -3,-3 0,-2 2,-4 3,-4z"/>
  <path class="fil1" d="M56 30l1 1 8 5c0,0 0,0 0,0 0,1 0,2 -1,2 0,0 0,0 0,-1l-7 -4 0 34 0 0c0,0 -1,1 -1,1 -1,0 -1,-1 -1,-1l0 -35 -8 -5 -1 -12 -3 -3 -31 18 0 36 12 7c1,0 1,-1 2,-1 2,0 4,2 4,4 0,2 -2,3 -4,3 -1,0 -3,-1 -3,-3 0,-1 0,-1 0,-1l-14 -8 0 -38 34 -19 6 4 0 12 7 4zm-30 44c2,0 2,1 2,2 0,1 0,2 -2,2 -1,0 -1,-1 -1,-2 0,-1 0,-2 1,-2zm32 -55c1,0 2,1 2,2 0,1 -1,2 -2,2 -1,0 -1,-1 -1,-2 0,-1 0,-2 1,-2zm0 -2c2,0 4,2 4,4 0,0 0,0 0,0l13 8 0 38 -33 19 -6 -4 0 -50 -8 17 -6 -10 0 23 0 0c0,1 0,1 -1,1 -1,0 -1,0 -1,-1l0 0 0 0 0 -26c0,0 0,0 0,0 0,-1 0,-1 1,-1 0,0 1,0 1,0l0 0 6 9 8 -17 0 0c0,0 0,-1 1,-1 1,0 1,1 1,1 0,0 0,0 0,0l0 0 0 54 4 3 31 -18 0 -36 -12 -7c-1,1 -2,1 -3,1 -1,0 -3,-1 -3,-3 0,-2 2,-4 3,-4z"/>
 </g>
</svg>
