<?xml version="1.0" encoding="UTF-8"?>
<!DOCTYPE svg PUBLIC "-//W3C//DTD SVG 1.1//EN" "http://www.w3.org/Graphics/SVG/1.1/DTD/svg11.dtd">
<!-- Creator: CorelDRAW X7 -->
<svg xmlns="http://www.w3.org/2000/svg" xml:space="preserve" width="24.0105in" height="3.02081in" version="1.1" style="shape-rendering:geometricPrecision; text-rendering:geometricPrecision; image-rendering:optimizeQuality; fill-rule:evenodd; clip-rule:evenodd"
viewBox="0 0 487715 61361"
 xmlns:xlink="http://www.w3.org/1999/xlink">
 <defs>
  <style type="text/css">
   <![CDATA[
    .str0 {stroke:black;stroke-width:423.126}
    .fil2 {fill:#373435}
    .fil0 {fill:#01B0F1}
    .fil1 {fill:white}
   ]]>
  </style>
 </defs>
 <g id="Layer_x0020_1">
  <metadata id="CorelCorpID_0Corel-Layer"/>
  <g id="_2387250149856">
   <polygon class="fil0 str0" points="485,15021 26695,30143 52918,15051 26411,243 "/>
   <polygon class="fil0 str0" points="213,45615 26411,60993 26695,30143 485,15021 "/>
   <polygon class="fil0 str0" points="52799,45805 52918,15051 26695,30143 26411,60993 "/>
   <path class="fil1" d="M35133 18987l494 297 5106 3073c205,118 343,339 343,592 0,378 -307,684 -684,684 -131,0 -254,-38 -358,-102l-4404 -2649 46 21067 0 2c0,377 -306,683 -684,683 -377,0 -683,-305 -684,-682l-47 -21893 -4881 -2937 -190 -7605 -2478 -1577 -19398 11023 71 22430 7797 4492c378,-348 883,-560 1437,-560 1174,0 2127,952 2127,2126 0,1175 -953,2127 -2127,2127 -1174,0 -2126,-952 -2126,-2127 0,-125 11,-248 32,-367l-8504 -4899 -76 -24016 20807 -11824 3787 2410 189 7582 4405 2650zm-18450 27339c647,0 1172,524 1172,1172 0,648 -525,1173 -1172,1173 -648,0 -1173,-525 -1173,-1173 0,-648 525,-1172 1173,-1172zm19955 -34385c648,0 1173,525 1173,1172 0,648 -525,1173 -1173,1173 -647,0 -1173,-525 -1173,-1173 0,-647 526,-1172 1173,-1172zm42 -957c1174,0 2126,952 2126,2126 0,127 -11,252 -32,373l8431 4855 -47 23944 -20692 11740 -3786 -2361 -109 -31373 -4728 10312 -3826 -5871 -34 14233 0 0c-1,377 -307,682 -684,682 -377,0 -683,-306 -683,-683l0 -2 0 0 3 -16508c-1,-12 -1,-24 -1,-36 0,-377 306,-683 683,-683 251,0 471,135 590,337l0 0 3743 5707 4967 -10834 2 0c111,-228 345,-386 616,-386 378,0 684,306 684,683 0,20 -1,39 -3,58l0 0 144 33604 2455 1530 19294 -10946 44 -22358 -7723 -4447c-378,345 -882,556 -1434,556 -1174,0 -2126,-952 -2126,-2126 0,-1174 952,-2126 2126,-2126z"/>
   <g>
    <path class="fil0" d="M68280 44301l0 -19751c0,-2445 740,-4437 2226,-5992 1486,-1548 3410,-2322 5780,-2322 2808,0 4965,1288 6478,3856 925,-1390 1918,-2376 2972,-2965 1062,-596 2363,-891 3918,-891 2465,0 4355,774 5670,2322 1308,1555 1965,3780 1965,6698l0 19045 -8135 0 0 -17826c0,-863 -69,-1439 -213,-1719 -143,-281 -431,-425 -869,-425 -815,0 -1219,671 -1219,2007l0 17963 -8136 0 0 -17826c0,-850 -75,-1425 -219,-1712 -151,-288 -438,-432 -870,-432 -808,0 -1212,712 -1212,2144l0 17826 -8136 0zm43843 -13765l0 7231 -2342 0 0 6534 -8136 0 0 -17429c0,-3363 918,-5979 2760,-7841 1842,-1863 4431,-2795 7766,-2795 3218,0 5595,843 7136,2534 1540,1692 2307,4294 2307,7821l0 17710 -8135 0 0 -17169c0,-1055 -130,-1781 -384,-2191 -260,-404 -719,-610 -1383,-610 -1288,0 -1931,931 -1931,2801l0 3404 2342 0zm22551 -6287l0 20052 -8136 0 0 -27407 10430 0c3178,0 5643,787 7396,2369 1952,1774 2924,4013 2924,6732 0,2774 -1205,5116 -3615,7020l4691 11286 -8547 0 -3951 -8821 0 -7040 643 0c1706,0 2562,-740 2562,-2226 0,-1308 -987,-1965 -2966,-1965l-1431 0zm26345 6287l0 7231 -2342 0 0 6534 -8136 0 0 -17429c0,-3363 918,-5979 2760,-7841 1842,-1863 4431,-2795 7766,-2795 3219,0 5595,843 7136,2534 1541,1692 2308,4294 2308,7821l0 17710 -8136 0 0 -17169c0,-1055 -130,-1781 -383,-2191 -261,-404 -719,-610 -1384,-610 -1287,0 -1931,931 -1931,2801l0 3404 2342 0zm13841 13765l0 -19751c0,-2445 739,-4437 2225,-5992 1486,-1548 3411,-2322 5780,-2322 2808,0 4965,1288 6479,3856 924,-1390 1917,-2376 2972,-2965 1061,-596 2362,-891 3917,-891 2465,0 4356,774 5670,2322 1308,1555 1966,3780 1966,6698l0 19045 -8136 0 0 -17826c0,-863 -68,-1439 -212,-1719 -144,-281 -432,-425 -870,-425 -815,0 -1219,671 -1219,2007l0 17963 -8136 0 0 -17826c0,-850 -75,-1425 -219,-1712 -150,-288 -438,-432 -869,-432 -809,0 -1213,712 -1213,2144l0 17826 -8135 0z"/>
    <path class="fil2" d="M230988 24783l0 19518 -8136 0 0 -19518 -6245 0 0 -7889 20585 0 0 7889 -6204 0zm23818 2794l0 6081 -5294 0c-719,0 -1232,110 -1527,322 -301,219 -452,582 -452,1096 0,582 151,959 459,1144 308,185 931,274 1877,274l5471 0 0 7807 -6389 0c-3013,0 -5321,-719 -6917,-2151 -1596,-1438 -2390,-3513 -2390,-6225l0 -10738c0,-2630 753,-4670 2260,-6122 1513,-1445 3630,-2171 6369,-2171l7067 0 0 7889 -5191 0c-1390,0 -2082,459 -2082,1370 0,534 165,904 494,1109 335,212 924,315 1766,315l4479 0zm23729 3335l8533 219c-561,4424 -2095,7842 -4588,10252 -2500,2411 -5753,3616 -9766,3616 -4081,0 -7499,-1370 -10252,-4102 -2746,-2739 -4122,-6136 -4122,-10190 0,-4082 1404,-7513 4205,-10293 2807,-2787 6259,-4178 10368,-4178 4040,0 7417,1363 10115,4089 1876,1883 3205,4513 3979,7875l-8732 589c-979,-2972 -2835,-4458 -5574,-4458 -1747,0 -3185,603 -4322,1801 -1130,1205 -1698,2733 -1698,4589 0,1787 555,3266 1671,4430 1116,1171 2520,1753 4225,1753 1733,0 3109,-513 4137,-1547 1027,-1034 1636,-2514 1821,-4445zm22784 -4198l0 7232 -2259 0 0 10355 -8136 0 0 -27407 8136 0 0 9820 2259 0zm9533 -9820l0 27407 -8136 0 0 -27407 8136 0zm4917 27407l0 -17785c0,-3109 932,-5602 2801,-7472 1863,-1869 4349,-2808 7451,-2808 3096,0 5458,911 7095,2726 1637,1815 2458,4431 2458,7834l0 17505 -8135 0 0 -17505c0,-1643 -596,-2465 -1795,-2465 -1157,0 -1739,822 -1739,2465l0 17505 -8136 0zm37748 -28065c3876,0 7204,1411 9978,4233 2773,2828 4163,6204 4163,10135 0,4006 -1397,7403 -4191,10197 -2794,2801 -6191,4198 -10190,4198 -3972,0 -7362,-1404 -10170,-4212 -2807,-2814 -4211,-6204 -4211,-10183 0,-4013 1411,-7410 4239,-10190 2828,-2787 6293,-4178 10382,-4178zm-240 8095c-1671,0 -3095,616 -4273,1842 -1178,1226 -1767,2712 -1767,4445 0,1732 589,3218 1774,4444 1184,1226 2609,1842 4266,1842 1685,0 3116,-609 4287,-1835 1171,-1219 1753,-2705 1753,-4451 0,-1747 -582,-3233 -1753,-4452 -1171,-1225 -2602,-1835 -4287,-1835zm17648 -7437l8136 0 0 16285c0,1274 205,2116 609,2541 411,424 1219,630 2425,630l417 0 0 7951 -2164 0c-2972,0 -5280,-870 -6937,-2603 -1657,-1732 -2486,-4136 -2486,-7211l0 -17593zm27338 -658c3876,0 7205,1411 9978,4233 2774,2828 4164,6204 4164,10135 0,4006 -1397,7403 -4191,10197 -2794,2801 -6191,4198 -10190,4198 -3972,0 -7362,-1404 -10170,-4212 -2808,-2814 -4212,-6204 -4212,-10183 0,-4013 1411,-7410 4239,-10190 2829,-2787 6294,-4178 10382,-4178zm-239 8095c-1671,0 -3096,616 -4274,1842 -1178,1226 -1767,2712 -1767,4445 0,1732 589,3218 1774,4444 1185,1226 2609,1842 4267,1842 1684,0 3116,-609 4287,-1835 1171,-1219 1753,-2705 1753,-4451 0,-1747 -582,-3233 -1753,-4452 -1171,-1225 -2603,-1835 -4287,-1835zm29810 4602l7766 0c1671,2075 2507,4267 2507,6574 0,2685 -980,4931 -2938,6760 -1966,1821 -4376,2732 -7239,2732 -3719,0 -6876,-1411 -9471,-4232 -2596,-2828 -3897,-6266 -3897,-10320 0,-4068 1322,-7451 3965,-10156 2644,-2705 5945,-4055 9903,-4055 1356,0 2856,268 4499,795l0 8163c-1287,-575 -2458,-863 -3513,-863 -1917,0 -3479,596 -4691,1787 -1212,1185 -1822,2733 -1822,4630 0,1938 562,3479 1692,4616 1130,1136 2650,1705 4568,1705 1226,0 1835,-370 1835,-1103 0,-554 -404,-828 -1219,-828l-1945 0 0 -6205zm21730 -12039l0 27407 -8136 0 0 -27407 8136 0zm20072 10683l0 6081 -5294 0c-719,0 -1232,110 -1527,322 -301,219 -452,582 -452,1096 0,582 151,959 459,1144 308,185 931,274 1876,274l5472 0 0 7807 -6389 0c-3014,0 -5321,-719 -6917,-2151 -1596,-1438 -2390,-3513 -2390,-6225l0 -10738c0,-2630 753,-4670 2260,-6122 1513,-1445 3629,-2171 6369,-2171l7067 0 0 7889 -5191 0c-1390,0 -2082,459 -2082,1370 0,534 165,904 493,1109 336,212 925,315 1767,315l4479 0zm18079 -10806l0 7820c-589,-171 -1048,-260 -1363,-260 -616,0 -1150,226 -1588,685 -445,452 -665,1000 -665,1644 0,547 240,1239 726,2081l623 1082c1130,1952 1692,3835 1692,5657 0,2657 -945,4910 -2842,6752 -1897,1843 -4212,2767 -6944,2767 -1315,0 -2609,-308 -3897,-918l0 -7930c774,500 1466,753 2068,753 713,0 1302,-205 1781,-609 472,-411 712,-925 712,-1541 0,-397 -377,-1274 -1137,-2623 -1212,-2143 -1821,-4280 -1821,-6423 0,-2582 917,-4808 2760,-6671 1835,-1869 4033,-2801 6588,-2801 1123,0 2225,179 3307,535z"/>
   </g>
  </g>
 </g>
</svg>
