<?xml version="1.0" encoding="UTF-8"?>
<!DOCTYPE svg PUBLIC "-//W3C//DTD SVG 1.1//EN" "http://www.w3.org/Graphics/SVG/1.1/DTD/svg11.dtd">
<!-- Creator: CorelDRAW X7 -->
<svg xmlns="http://www.w3.org/2000/svg" xml:space="preserve" width="12.7mm" height="12.7mm" version="1.1" style="shape-rendering:geometricPrecision; text-rendering:geometricPrecision; image-rendering:optimizeQuality; fill-rule:evenodd; clip-rule:evenodd"
viewBox="0 0 10 10"
 xmlns:xlink="http://www.w3.org/1999/xlink">
 <defs>
  <style type="text/css">
   <![CDATA[
    .fil0 {fill:#01B0F0}
   ]]>
  </style>
 </defs>
 <g id="Layer_x0020_1">
  <metadata id="CorelCorpID_0Corel-Layer"/>
  <g id="_2362511139120">
   <path class="fil0" d="M2 2c1,0 1,0 1,0 0,1 0,1 -1,1 0,0 0,0 0,-1 0,0 0,0 0,0zm2 3l0 0c0,0 0,0 0,0 0,1 0,1 -1,1 0,0 0,0 0,-1 0,0 0,0 0,0 0,0 0,-1 0,-1 0,0 0,0 0,0 1,0 1,0 1,0 0,0 0,0 0,0l0 1c0,-1 0,-1 0,-1 0,0 -1,0 -1,0 0,0 0,0 0,0 0,0 0,1 0,1 0,0 0,0 0,0 0,0 0,0 0,0 0,0 1,0 1,0 0,0 0,0 0,0zm0 1l0 -2 1 0c0,0 0,0 0,0 0,0 0,0 0,0 0,0 0,0 0,1 0,0 0,0 0,0 0,0 0,0 0,0 0,0 0,0 0,0 0,0 0,0 0,0l0 0 0 1 -1 0zm1 -2l0 1 0 0c0,0 0,0 0,0 0,0 0,0 0,0 0,0 0,0 0,0 0,-1 0,-1 0,-1 0,0 0,0 0,0 0,0 0,0 0,0l0 0zm1 0l0 0 0 1c0,0 0,0 0,0 0,0 0,0 0,0 0,0 0,0 0,0 0,0 0,0 1,0 0,0 0,0 0,0 0,0 0,0 0,0l0 -1 0 0 0 1c0,0 0,0 0,0 0,0 0,0 0,0 0,0 0,1 0,1 0,0 -1,0 -1,0 0,0 0,0 0,0 0,0 0,-1 0,-1 0,0 0,0 0,0 0,0 0,0 0,0l0 -1zm-4 4l6 0 0 -6 -6 0 0 6z"/>
   <path class="fil0" d="M1 8l0 -6c0,-1 0,-1 1,-1l6 0c0,0 0,0 0,1l0 6c0,0 0,0 0,0l-6 0c-1,0 -1,0 -1,0zm0 -7l0 7c0,0 0,1 0,1l7 0c0,0 1,-1 1,-1l0 -7c0,0 -1,0 -1,0l-7 0c0,0 0,0 0,0z"/>
   <path class="fil0" d="M9 2l0 0c1,0 1,0 1,0 0,0 0,0 -1,0l0 0 0 0 0 0z"/>
   <path class="fil0" d="M2 9c0,1 0,1 0,1 0,0 0,0 0,-1l0 0 0 0 0 0 0 0z"/>
   <path class="fil0" d="M3 9c0,1 0,1 0,1 0,0 1,0 1,-1l0 0 -1 0 0 0 0 0z"/>
   <path class="fil0" d="M5 9c0,1 0,1 0,1 0,0 0,0 0,-1l0 0 0 0 0 0 0 0z"/>
   <path class="fil0" d="M6 9c0,1 0,1 0,1 0,0 0,0 0,-1l0 0 0 0 0 0 0 0z"/>
   <path class="fil0" d="M7 9c0,1 0,1 1,1 0,0 0,0 0,-1l0 0 -1 0 0 0 0 0z"/>
   <path class="fil0" d="M0 2c0,0 0,0 0,0l1 0 0 0 -1 0c0,0 0,0 0,0l0 0z"/>
   <path class="fil0" d="M2 0l0 1 0 0 0 -1c0,0 0,0 0,0 0,0 0,0 0,0l0 0z"/>
   <path class="fil0" d="M3 0l0 1 1 0 0 -1c0,0 -1,0 -1,0 0,0 0,0 0,0l0 0z"/>
   <path class="fil0" d="M5 0l0 1 0 0 0 -1c0,0 0,0 0,0 0,0 0,0 0,0l0 0z"/>
   <path class="fil0" d="M6 0l0 1 0 0 0 -1c0,0 0,0 0,0 0,0 0,0 0,0l0 0z"/>
   <path class="fil0" d="M7 0l0 1 1 0 0 -1c0,0 0,0 0,0 -1,0 -1,0 -1,0l0 0z"/>
   <path class="fil0" d="M0 3c0,0 0,1 0,1l1 0 0 -1 -1 0c0,0 0,0 0,0l0 0z"/>
   <path class="fil0" d="M9 4l0 0c1,0 1,-1 1,-1 0,0 0,0 -1,0l0 0 0 1 0 0z"/>
   <path class="fil0" d="M0 5c0,0 0,0 0,0l1 0 0 0 -1 0c0,0 0,0 0,0l0 0z"/>
   <path class="fil0" d="M0 6c0,0 0,0 0,0l1 0 0 0 -1 0c0,0 0,0 0,0l0 0z"/>
   <path class="fil0" d="M0 8c0,0 0,0 0,0l1 0 0 -1 -1 0c0,0 0,0 0,1l0 0z"/>
   <path class="fil0" d="M9 5l0 0c1,0 1,0 1,0 0,0 0,0 -1,0l0 0 0 0 0 0z"/>
   <path class="fil0" d="M9 6l0 0c1,0 1,0 1,0 0,0 0,0 -1,0l0 0 0 0 0 0z"/>
   <path class="fil0" d="M9 8l0 0c1,0 1,0 1,0 0,-1 0,-1 -1,-1l0 0 0 1 0 0z"/>
  </g>
 </g>
</svg>
