<?xml version="1.0" encoding="utf-8"?>
<!-- Generator: Adobe Illustrator 23.0.4, SVG Export Plug-In . SVG Version: 6.00 Build 0)  -->
<svg version="1.1" id="pdf-frame" xmlns="http://www.w3.org/2000/svg" xmlns:xlink="http://www.w3.org/1999/xlink" x="0px" y="0px"
	 viewBox="0 0 279 361.7" style="enable-background:new 0 0 279 361.7;" xml:space="preserve">
<style type="text/css">
	.frame-color{fill:#47BDEF;}
	.background-color{fill:#ffffff;}
	.text-color{fill:#000000;}
	.icon-color{fill:#47BDEF;opacity:1;}
	.icon-black{fill:#000000;opacity:0}

	.circle-color{fill:#47BDEF;}
	.circle-color-black{fill:#FFFFFF;}
	.circle-outline{fill:#000000;opacity:0}

	.show_on_light{opacity:1;}
	.hide_on_light{opacity:0;}
</style>

<svg xmlns="http://www.w3.org/2000/svg" xmlns:xlink="http://www.w3.org/1999/xlink" version="1.1" width="259.8" height="259.8" viewBox="0 0 2000 2000" x="9.6" y="9.6" shape-rendering="crispEdges"><defs/><rect x="0" y="0" width="2000" height="2000" fill="#ffffff"/><svg viewBox="0 0 4 4" x="712" y="200" width="64" height="64" shape-rendering="auto"><path fill="#000000" d="M3.15,4A0.85,0.85,0,0,0,4,3.15V4Z"/></svg><svg viewBox="0 0 4 4" x="776" y="200" width="64" height="64" shape-rendering="auto"><path fill="#000000" d="M4,3.15V0.85A0.85,0.85,0,0,0,3.15,0H0.85A0.85,0.85,0,0,0,0,0.85V4H4Z"/></svg><svg viewBox="0 0 4 4" x="1032" y="200" width="64" height="64" shape-rendering="auto"><path fill="#000000" d="M3.15,4A0.85,0.85,0,0,0,4,3.15V4Z"/></svg><svg viewBox="0 0 4 4" x="1096" y="200" width="64" height="64" shape-rendering="auto"><path fill="#000000" d="M4,3.15V0.85A0.85,0.85,0,0,0,3.15,0H0.85A0.85,0.85,0,0,0,0,0.85V4H4Z"/></svg><svg viewBox="0 0 4 4" x="1224" y="200" width="64" height="64" shape-rendering="auto"><rect fill="#000000" width="4" height="4" rx="0.85"/></svg><svg viewBox="0 0 4 4" x="712" y="264" width="64" height="64" shape-rendering="auto"><path fill="#000000" d="M3.15,0H0.85A0.85,0.85,0,0,0,0,0.85v2.3A0.85,0.85,0,0,0,0.85,4H4V0Z"/></svg><svg viewBox="0 0 4 4" x="776" y="264" width="64" height="64" shape-rendering="auto"><rect fill="#000000" width="4" height="4"/></svg><svg viewBox="0 0 4 4" x="840" y="264" width="64" height="64" shape-rendering="auto"><path fill="#000000" d="M3.15,4A0.85,0.85,0,0,0,4,3.15V4Z"/></svg><svg viewBox="0 0 4 4" x="840" y="264" width="64" height="64" shape-rendering="auto"><path fill="#000000" d="M0.85,4A0.85,0.85,0,0,1,0,3.15V4Z"/></svg><svg viewBox="0 0 4 4" x="904" y="264" width="64" height="64" shape-rendering="auto"><path fill="#000000" d="M0.85,0A0.85,0.85,0,0,0,0,0.85V4H4V0H0.85Z"/></svg><svg viewBox="0 0 4 4" x="968" y="264" width="64" height="64" shape-rendering="auto"><rect fill="#000000" width="4" height="4"/></svg><svg viewBox="0 0 4 4" x="1032" y="264" width="64" height="64" shape-rendering="auto"><rect fill="#000000" width="4" height="4"/></svg><svg viewBox="0 0 4 4" x="1096" y="264" width="64" height="64" shape-rendering="auto"><path fill="#000000" d="M4,3.15A0.85,0.85,0,0,1,3.15,4H0V0H4V3.15Z"/></svg><svg viewBox="0 0 4 4" x="712" y="328" width="64" height="64" shape-rendering="auto"><path fill="#000000" d="M4,0.85V0H3.15A0.85,0.85,0,0,1,4,0.85Z"/></svg><svg viewBox="0 0 4 4" x="712" y="328" width="64" height="64" shape-rendering="auto"><path fill="#000000" d="M3.15,4A0.85,0.85,0,0,0,4,3.15V4Z"/></svg><svg viewBox="0 0 4 4" x="776" y="328" width="64" height="64" shape-rendering="auto"><rect fill="#000000" width="4" height="4"/></svg><svg viewBox="0 0 4 4" x="840" y="328" width="64" height="64" shape-rendering="auto"><rect fill="#000000" width="4" height="4"/></svg><svg viewBox="0 0 4 4" x="904" y="328" width="64" height="64" shape-rendering="auto"><rect fill="#000000" width="4" height="4"/></svg><svg viewBox="0 0 4 4" x="968" y="328" width="64" height="64" shape-rendering="auto"><path fill="#000000" d="M0.85,0H0V0.85A0.85,0.85,0,0,1,0.85,0Z"/></svg><svg viewBox="0 0 4 4" x="712" y="392" width="64" height="64" shape-rendering="auto"><path fill="#000000" d="M3.15,0H0.85A0.85,0.85,0,0,0,0,0.85v2.3A0.85,0.85,0,0,0,0.85,4H4V0Z"/></svg><svg viewBox="0 0 4 4" x="776" y="392" width="64" height="64" shape-rendering="auto"><path fill="#000000" d="M4,3.15A0.85,0.85,0,0,1,3.15,4H0V0H4V3.15Z"/></svg><svg viewBox="0 0 4 4" x="840" y="392" width="64" height="64" shape-rendering="auto"><path fill="#000000" d="M0.85,0H0V0.85A0.85,0.85,0,0,1,0.85,0Z"/></svg><svg viewBox="0 0 4 4" x="840" y="392" width="64" height="64" shape-rendering="auto"><path fill="#000000" d="M4,0.85V0H3.15A0.85,0.85,0,0,1,4,0.85Z"/></svg><svg viewBox="0 0 4 4" x="904" y="392" width="64" height="64" shape-rendering="auto"><path fill="#000000" d="M0,3.15A0.85,0.85,0,0,0,0.85,4h2.3A0.85,0.85,0,0,0,4,3.15V0H0V3.15Z"/></svg><svg viewBox="0 0 4 4" x="1032" y="392" width="64" height="64" shape-rendering="auto"><rect fill="#000000" width="4" height="4" rx="0.85"/></svg><svg viewBox="0 0 4 4" x="1160" y="392" width="64" height="64" shape-rendering="auto"><path fill="#000000" d="M0.85,0A0.85,0.85,0,0,0,0,0.85V4H4V0H0.85Z"/></svg><svg viewBox="0 0 4 4" x="1224" y="392" width="64" height="64" shape-rendering="auto"><path fill="#000000" d="M3.15,0A0.85,0.85,0,0,1,4,0.85V4H0V0H3.15Z"/></svg><svg viewBox="0 0 4 4" x="840" y="456" width="64" height="64" shape-rendering="auto"><path fill="#000000" d="M4,3.15V0.85A0.85,0.85,0,0,0,3.15,0H0.85A0.85,0.85,0,0,0,0,0.85V4H4Z"/></svg><svg viewBox="0 0 4 4" x="968" y="456" width="64" height="64" shape-rendering="auto"><rect fill="#000000" width="4" height="4" rx="0.85"/></svg><svg viewBox="0 0 4 4" x="1096" y="456" width="64" height="64" shape-rendering="auto"><path fill="#000000" d="M3.15,4A0.85,0.85,0,0,0,4,3.15V4Z"/></svg><svg viewBox="0 0 4 4" x="1160" y="456" width="64" height="64" shape-rendering="auto"><rect fill="#000000" width="4" height="4"/></svg><svg viewBox="0 0 4 4" x="1224" y="456" width="64" height="64" shape-rendering="auto"><path fill="#000000" d="M4,3.15A0.85,0.85,0,0,1,3.15,4H0V0H4V3.15Z"/></svg><svg viewBox="0 0 4 4" x="712" y="520" width="64" height="64" shape-rendering="auto"><path fill="#000000" d="M4,3.15V0.85A0.85,0.85,0,0,0,3.15,0H0.85A0.85,0.85,0,0,0,0,0.85V4H4Z"/></svg><svg viewBox="0 0 4 4" x="840" y="520" width="64" height="64" shape-rendering="auto"><rect fill="#000000" width="4" height="4"/></svg><svg viewBox="0 0 4 4" x="1032" y="520" width="64" height="64" shape-rendering="auto"><path fill="#000000" d="M3.15,0H0.85A0.85,0.85,0,0,0,0,0.85v2.3A0.85,0.85,0,0,0,0.85,4H4V0Z"/></svg><svg viewBox="0 0 4 4" x="1096" y="520" width="64" height="64" shape-rendering="auto"><rect fill="#000000" width="4" height="4"/></svg><svg viewBox="0 0 4 4" x="1160" y="520" width="64" height="64" shape-rendering="auto"><path fill="#000000" d="M4,3.15A0.85,0.85,0,0,1,3.15,4H0V0H4V3.15Z"/></svg><svg viewBox="0 0 4 4" x="1224" y="520" width="64" height="64" shape-rendering="auto"><path fill="#000000" d="M0.85,0H0V0.85A0.85,0.85,0,0,1,0.85,0Z"/></svg><svg viewBox="0 0 4 4" x="712" y="584" width="64" height="64" shape-rendering="auto"><path fill="#000000" d="M0,3.15A0.85,0.85,0,0,0,0.85,4h2.3A0.85,0.85,0,0,0,4,3.15V0H0V3.15Z"/></svg><svg viewBox="0 0 4 4" x="840" y="584" width="64" height="64" shape-rendering="auto"><path fill="#000000" d="M0,3.15A0.85,0.85,0,0,0,0.85,4h2.3A0.85,0.85,0,0,0,4,3.15V0H0V3.15Z"/></svg><svg viewBox="0 0 4 4" x="968" y="584" width="64" height="64" shape-rendering="auto"><path fill="#000000" d="M4,3.15V0.85A0.85,0.85,0,0,0,3.15,0H0.85A0.85,0.85,0,0,0,0,0.85V4H4Z"/></svg><svg viewBox="0 0 4 4" x="1032" y="584" width="64" height="64" shape-rendering="auto"><path fill="#000000" d="M4,0.85V0H3.15A0.85,0.85,0,0,1,4,0.85Z"/></svg><svg viewBox="0 0 4 4" x="1096" y="584" width="64" height="64" shape-rendering="auto"><path fill="#000000" d="M0,3.15A0.85,0.85,0,0,0,0.85,4h2.3A0.85,0.85,0,0,0,4,3.15V0H0V3.15Z"/></svg><svg viewBox="0 0 4 4" x="1160" y="584" width="64" height="64" shape-rendering="auto"><path fill="#000000" d="M0.85,0H0V0.85A0.85,0.85,0,0,1,0.85,0Z"/></svg><svg viewBox="0 0 4 4" x="1224" y="584" width="64" height="64" shape-rendering="auto"><path fill="#000000" d="M4,3.15V0.85A0.85,0.85,0,0,0,3.15,0H0.85A0.85,0.85,0,0,0,0,0.85V4H4Z"/></svg><svg viewBox="0 0 4 4" x="968" y="648" width="64" height="64" shape-rendering="auto"><rect fill="#000000" width="4" height="4"/></svg><svg viewBox="0 0 4 4" x="1224" y="648" width="64" height="64" shape-rendering="auto"><path fill="#000000" d="M0,3.15A0.85,0.85,0,0,0,0.85,4h2.3A0.85,0.85,0,0,0,4,3.15V0H0V3.15Z"/></svg><svg viewBox="0 0 4 4" x="200" y="712" width="64" height="64" shape-rendering="auto"><path fill="#000000" d="M3.15,0H0.85A0.85,0.85,0,0,0,0,0.85v2.3A0.85,0.85,0,0,0,0.85,4H4V0Z"/></svg><svg viewBox="0 0 4 4" x="264" y="712" width="64" height="64" shape-rendering="auto"><rect fill="#000000" width="4" height="4"/></svg><svg viewBox="0 0 4 4" x="328" y="712" width="64" height="64" shape-rendering="auto"><rect fill="#000000" width="4" height="4"/></svg><svg viewBox="0 0 4 4" x="392" y="712" width="64" height="64" shape-rendering="auto"><rect fill="#000000" width="4" height="4"/></svg><svg viewBox="0 0 4 4" x="456" y="712" width="64" height="64" shape-rendering="auto"><path fill="#000000" d="M3.15,0A0.85,0.85,0,0,1,4,0.85V4H0V0H3.15Z"/></svg><svg viewBox="0 0 4 4" x="584" y="712" width="64" height="64" shape-rendering="auto"><path fill="#000000" d="M3.15,0H0.85A0.85,0.85,0,0,0,0,0.85v2.3A0.85,0.85,0,0,0,0.85,4H4V0Z"/></svg><svg viewBox="0 0 4 4" x="648" y="712" width="64" height="64" shape-rendering="auto"><rect fill="#000000" width="4" height="4"/></svg><svg viewBox="0 0 4 4" x="712" y="712" width="64" height="64" shape-rendering="auto"><rect fill="#000000" width="4" height="4"/></svg><svg viewBox="0 0 4 4" x="776" y="712" width="64" height="64" shape-rendering="auto"><rect fill="#000000" width="4" height="4"/></svg><svg viewBox="0 0 4 4" x="840" y="712" width="64" height="64" shape-rendering="auto"><path fill="#000000" d="M0.85,4h2.3A0.85,0.85,0,0,0,4,3.15V0.85A0.85,0.85,0,0,0,3.15,0H0V4Z"/></svg><svg viewBox="0 0 4 4" x="968" y="712" width="64" height="64" shape-rendering="auto"><path fill="#000000" d="M0,3.15A0.85,0.85,0,0,0,0.85,4h2.3A0.85,0.85,0,0,0,4,3.15V0H0V3.15Z"/></svg><svg viewBox="0 0 4 4" x="1096" y="712" width="64" height="64" shape-rendering="auto"><path fill="#000000" d="M3.15,0H0.85A0.85,0.85,0,0,0,0,0.85v2.3A0.85,0.85,0,0,0,0.85,4H4V0Z"/></svg><svg viewBox="0 0 4 4" x="1160" y="712" width="64" height="64" shape-rendering="auto"><path fill="#000000" d="M3.15,0A0.85,0.85,0,0,1,4,0.85V4H0V0H3.15Z"/></svg><svg viewBox="0 0 4 4" x="1224" y="712" width="64" height="64" shape-rendering="auto"><path fill="#000000" d="M3.15,4A0.85,0.85,0,0,0,4,3.15V4Z"/></svg><svg viewBox="0 0 4 4" x="1224" y="712" width="64" height="64" shape-rendering="auto"><path fill="#000000" d="M0.85,4A0.85,0.85,0,0,1,0,3.15V4Z"/></svg><svg viewBox="0 0 4 4" x="1288" y="712" width="64" height="64" shape-rendering="auto"><path fill="#000000" d="M4,3.15V0.85A0.85,0.85,0,0,0,3.15,0H0.85A0.85,0.85,0,0,0,0,0.85V4H4Z"/></svg><svg viewBox="0 0 4 4" x="1416" y="712" width="64" height="64" shape-rendering="auto"><path fill="#000000" d="M4,3.15V0.85A0.85,0.85,0,0,0,3.15,0H0.85A0.85,0.85,0,0,0,0,0.85V4H4Z"/></svg><svg viewBox="0 0 4 4" x="1480" y="712" width="64" height="64" shape-rendering="auto"><path fill="#000000" d="M0.85,4A0.85,0.85,0,0,1,0,3.15V4Z"/></svg><svg viewBox="0 0 4 4" x="1544" y="712" width="64" height="64" shape-rendering="auto"><rect fill="#000000" width="4" height="4" rx="0.85"/></svg><svg viewBox="0 0 4 4" x="1672" y="712" width="64" height="64" shape-rendering="auto"><rect fill="#000000" width="4" height="4" rx="0.85"/></svg><svg viewBox="0 0 4 4" x="200" y="776" width="64" height="64" shape-rendering="auto"><path fill="#000000" d="M4,0.85V0H3.15A0.85,0.85,0,0,1,4,0.85Z"/></svg><svg viewBox="0 0 4 4" x="200" y="776" width="64" height="64" shape-rendering="auto"><path fill="#000000" d="M3.15,4A0.85,0.85,0,0,0,4,3.15V4Z"/></svg><svg viewBox="0 0 4 4" x="264" y="776" width="64" height="64" shape-rendering="auto"><rect fill="#000000" width="4" height="4"/></svg><svg viewBox="0 0 4 4" x="328" y="776" width="64" height="64" shape-rendering="auto"><path fill="#000000" d="M4,3.15A0.85,0.85,0,0,1,3.15,4H0V0H4V3.15Z"/></svg><svg viewBox="0 0 4 4" x="392" y="776" width="64" height="64" shape-rendering="auto"><path fill="#000000" d="M0.85,0H0V0.85A0.85,0.85,0,0,1,0.85,0Z"/></svg><svg viewBox="0 0 4 4" x="392" y="776" width="64" height="64" shape-rendering="auto"><path fill="#000000" d="M4,0.85V0H3.15A0.85,0.85,0,0,1,4,0.85Z"/></svg><svg viewBox="0 0 4 4" x="456" y="776" width="64" height="64" shape-rendering="auto"><path fill="#000000" d="M0,3.15A0.85,0.85,0,0,0,0.85,4h2.3A0.85,0.85,0,0,0,4,3.15V0H0V3.15Z"/></svg><svg viewBox="0 0 4 4" x="712" y="776" width="64" height="64" shape-rendering="auto"><path fill="#000000" d="M4,0.85V0H3.15A0.85,0.85,0,0,1,4,0.85Z"/></svg><svg viewBox="0 0 4 4" x="776" y="776" width="64" height="64" shape-rendering="auto"><rect fill="#000000" width="4" height="4"/></svg><svg viewBox="0 0 4 4" x="840" y="776" width="64" height="64" shape-rendering="auto"><path fill="#000000" d="M0.85,0H0V0.85A0.85,0.85,0,0,1,0.85,0Z"/></svg><svg viewBox="0 0 4 4" x="1096" y="776" width="64" height="64" shape-rendering="auto"><path fill="#000000" d="M4,0.85V0H3.15A0.85,0.85,0,0,1,4,0.85Z"/></svg><svg viewBox="0 0 4 4" x="1160" y="776" width="64" height="64" shape-rendering="auto"><rect fill="#000000" width="4" height="4"/></svg><svg viewBox="0 0 4 4" x="1224" y="776" width="64" height="64" shape-rendering="auto"><rect fill="#000000" width="4" height="4"/></svg><svg viewBox="0 0 4 4" x="1288" y="776" width="64" height="64" shape-rendering="auto"><rect fill="#000000" width="4" height="4"/></svg><svg viewBox="0 0 4 4" x="1352" y="776" width="64" height="64" shape-rendering="auto"><path fill="#000000" d="M0.85,4A0.85,0.85,0,0,1,0,3.15V4Z"/></svg><svg viewBox="0 0 4 4" x="1416" y="776" width="64" height="64" shape-rendering="auto"><path fill="#000000" d="M0,3.15A0.85,0.85,0,0,0,0.85,4H4V0H0V3.15Z"/></svg><svg viewBox="0 0 4 4" x="1480" y="776" width="64" height="64" shape-rendering="auto"><path fill="#000000" d="M3.15,0A0.85,0.85,0,0,1,4,0.85V4H0V0H3.15Z"/></svg><svg viewBox="0 0 4 4" x="1736" y="776" width="64" height="64" shape-rendering="auto"><rect fill="#000000" width="4" height="4" rx="0.85"/></svg><svg viewBox="0 0 4 4" x="200" y="840" width="64" height="64" shape-rendering="auto"><path fill="#000000" d="M0.85,0A0.85,0.85,0,0,0,0,0.85V4H4V0H0.85Z"/></svg><svg viewBox="0 0 4 4" x="264" y="840" width="64" height="64" shape-rendering="auto"><path fill="#000000" d="M4,3.15A0.85,0.85,0,0,1,3.15,4H0V0H4V3.15Z"/></svg><svg viewBox="0 0 4 4" x="328" y="840" width="64" height="64" shape-rendering="auto"><path fill="#000000" d="M0.85,0H0V0.85A0.85,0.85,0,0,1,0.85,0Z"/></svg><svg viewBox="0 0 4 4" x="392" y="840" width="64" height="64" shape-rendering="auto"><rect fill="#000000" width="4" height="4" rx="0.85"/></svg><svg viewBox="0 0 4 4" x="584" y="840" width="64" height="64" shape-rendering="auto"><rect fill="#000000" width="4" height="4" rx="0.85"/></svg><svg viewBox="0 0 4 4" x="776" y="840" width="64" height="64" shape-rendering="auto"><rect fill="#000000" width="4" height="4"/></svg><svg viewBox="0 0 4 4" x="840" y="840" width="64" height="64" shape-rendering="auto"><path fill="#000000" d="M3.15,4A0.85,0.85,0,0,0,4,3.15V4Z"/></svg><svg viewBox="0 0 4 4" x="840" y="840" width="64" height="64" shape-rendering="auto"><path fill="#000000" d="M0.85,4A0.85,0.85,0,0,1,0,3.15V4Z"/></svg><svg viewBox="0 0 4 4" x="904" y="840" width="64" height="64" shape-rendering="auto"><path fill="#000000" d="M0.85,0A0.85,0.85,0,0,0,0,0.85V4H4V0H0.85Z"/></svg><svg viewBox="0 0 4 4" x="968" y="840" width="64" height="64" shape-rendering="auto"><rect fill="#000000" width="4" height="4"/></svg><svg viewBox="0 0 4 4" x="1032" y="840" width="64" height="64" shape-rendering="auto"><path fill="#000000" d="M0.85,4h2.3A0.85,0.85,0,0,0,4,3.15V0.85A0.85,0.85,0,0,0,3.15,0H0V4Z"/></svg><svg viewBox="0 0 4 4" x="1160" y="840" width="64" height="64" shape-rendering="auto"><path fill="#000000" d="M0,3.15A0.85,0.85,0,0,0,0.85,4h2.3A0.85,0.85,0,0,0,4,3.15V0H0V3.15Z"/></svg><svg viewBox="0 0 4 4" x="1224" y="840" width="64" height="64" shape-rendering="auto"><path fill="#000000" d="M0.85,0H0V0.85A0.85,0.85,0,0,1,0.85,0Z"/></svg><svg viewBox="0 0 4 4" x="1224" y="840" width="64" height="64" shape-rendering="auto"><path fill="#000000" d="M4,0.85V0H3.15A0.85,0.85,0,0,1,4,0.85Z"/></svg><svg viewBox="0 0 4 4" x="1224" y="840" width="64" height="64" shape-rendering="auto"><path fill="#000000" d="M3.15,4A0.85,0.85,0,0,0,4,3.15V4Z"/></svg><svg viewBox="0 0 4 4" x="1288" y="840" width="64" height="64" shape-rendering="auto"><rect fill="#000000" width="4" height="4"/></svg><svg viewBox="0 0 4 4" x="1352" y="840" width="64" height="64" shape-rendering="auto"><path fill="#000000" d="M0.85,4h2.3A0.85,0.85,0,0,0,4,3.15V0.85A0.85,0.85,0,0,0,3.15,0H0V4Z"/></svg><svg viewBox="0 0 4 4" x="1416" y="840" width="64" height="64" shape-rendering="auto"><path fill="#000000" d="M4,0.85V0H3.15A0.85,0.85,0,0,1,4,0.85Z"/></svg><svg viewBox="0 0 4 4" x="1480" y="840" width="64" height="64" shape-rendering="auto"><path fill="#000000" d="M0,3.15A0.85,0.85,0,0,0,0.85,4h2.3A0.85,0.85,0,0,0,4,3.15V0H0V3.15Z"/></svg><svg viewBox="0 0 4 4" x="1608" y="840" width="64" height="64" shape-rendering="auto"><rect fill="#000000" width="4" height="4" rx="0.85"/></svg><svg viewBox="0 0 4 4" x="200" y="904" width="64" height="64" shape-rendering="auto"><path fill="#000000" d="M0,3.15A0.85,0.85,0,0,0,0.85,4h2.3A0.85,0.85,0,0,0,4,3.15V0H0V3.15Z"/></svg><svg viewBox="0 0 4 4" x="264" y="904" width="64" height="64" shape-rendering="auto"><path fill="#000000" d="M0.85,0H0V0.85A0.85,0.85,0,0,1,0.85,0Z"/></svg><svg viewBox="0 0 4 4" x="456" y="904" width="64" height="64" shape-rendering="auto"><path fill="#000000" d="M3.15,4A0.85,0.85,0,0,0,4,3.15V4Z"/></svg><svg viewBox="0 0 4 4" x="520" y="904" width="64" height="64" shape-rendering="auto"><path fill="#000000" d="M4,3.15V0.85A0.85,0.85,0,0,0,3.15,0H0.85A0.85,0.85,0,0,0,0,0.85V4H4Z"/></svg><svg viewBox="0 0 4 4" x="584" y="904" width="64" height="64" shape-rendering="auto"><path fill="#000000" d="M0.85,4A0.85,0.85,0,0,1,0,3.15V4Z"/></svg><svg viewBox="0 0 4 4" x="776" y="904" width="64" height="64" shape-rendering="auto"><rect fill="#000000" width="4" height="4"/></svg><svg viewBox="0 0 4 4" x="840" y="904" width="64" height="64" shape-rendering="auto"><rect fill="#000000" width="4" height="4"/></svg><svg viewBox="0 0 4 4" x="904" y="904" width="64" height="64" shape-rendering="auto"><rect fill="#000000" width="4" height="4"/></svg><svg viewBox="0 0 4 4" x="968" y="904" width="64" height="64" shape-rendering="auto"><path fill="#000000" d="M0.85,0H0V0.85A0.85,0.85,0,0,1,0.85,0Z"/></svg><svg viewBox="0 0 4 4" x="1032" y="904" width="64" height="64" shape-rendering="auto"><path fill="#000000" d="M3.15,4A0.85,0.85,0,0,0,4,3.15V4Z"/></svg><svg viewBox="0 0 4 4" x="1096" y="904" width="64" height="64" shape-rendering="auto"><path fill="#000000" d="M4,3.15V0.85A0.85,0.85,0,0,0,3.15,0H0.85A0.85,0.85,0,0,0,0,0.85V4H4Z"/></svg><svg viewBox="0 0 4 4" x="1160" y="904" width="64" height="64" shape-rendering="auto"><path fill="#000000" d="M0.85,4A0.85,0.85,0,0,1,0,3.15V4Z"/></svg><svg viewBox="0 0 4 4" x="1224" y="904" width="64" height="64" shape-rendering="auto"><path fill="#000000" d="M3.15,0H0.85A0.85,0.85,0,0,0,0,0.85v2.3A0.85,0.85,0,0,0,0.85,4H4V0Z"/></svg><svg viewBox="0 0 4 4" x="1288" y="904" width="64" height="64" shape-rendering="auto"><path fill="#000000" d="M4,3.15A0.85,0.85,0,0,1,3.15,4H0V0H4V3.15Z"/></svg><svg viewBox="0 0 4 4" x="1352" y="904" width="64" height="64" shape-rendering="auto"><path fill="#000000" d="M0.85,0H0V0.85A0.85,0.85,0,0,1,0.85,0Z"/></svg><svg viewBox="0 0 4 4" x="264" y="968" width="64" height="64" shape-rendering="auto"><rect fill="#000000" width="4" height="4" rx="0.85"/></svg><svg viewBox="0 0 4 4" x="392" y="968" width="64" height="64" shape-rendering="auto"><path fill="#000000" d="M3.15,4A0.85,0.85,0,0,0,4,3.15V4Z"/></svg><svg viewBox="0 0 4 4" x="456" y="968" width="64" height="64" shape-rendering="auto"><path fill="#000000" d="M0.85,0A0.85,0.85,0,0,0,0,0.85V4H4V0H0.85Z"/></svg><svg viewBox="0 0 4 4" x="520" y="968" width="64" height="64" shape-rendering="auto"><rect fill="#000000" width="4" height="4"/></svg><svg viewBox="0 0 4 4" x="584" y="968" width="64" height="64" shape-rendering="auto"><path fill="#000000" d="M0.85,4h2.3A0.85,0.85,0,0,0,4,3.15V0.85A0.85,0.85,0,0,0,3.15,0H0V4Z"/></svg><svg viewBox="0 0 4 4" x="776" y="968" width="64" height="64" shape-rendering="auto"><path fill="#000000" d="M0,3.15A0.85,0.85,0,0,0,0.85,4h2.3A0.85,0.85,0,0,0,4,3.15V0H0V3.15Z"/></svg><svg viewBox="0 0 4 4" x="840" y="968" width="64" height="64" shape-rendering="auto"><path fill="#000000" d="M0.85,0H0V0.85A0.85,0.85,0,0,1,0.85,0Z"/></svg><svg viewBox="0 0 4 4" x="840" y="968" width="64" height="64" shape-rendering="auto"><path fill="#000000" d="M4,0.85V0H3.15A0.85,0.85,0,0,1,4,0.85Z"/></svg><svg viewBox="0 0 4 4" x="904" y="968" width="64" height="64" shape-rendering="auto"><path fill="#000000" d="M0,3.15A0.85,0.85,0,0,0,0.85,4h2.3A0.85,0.85,0,0,0,4,3.15V0H0V3.15Z"/></svg><svg viewBox="0 0 4 4" x="1032" y="968" width="64" height="64" shape-rendering="auto"><path fill="#000000" d="M3.15,0H0.85A0.85,0.85,0,0,0,0,0.85v2.3A0.85,0.85,0,0,0,0.85,4H4V0Z"/></svg><svg viewBox="0 0 4 4" x="1096" y="968" width="64" height="64" shape-rendering="auto"><rect fill="#000000" width="4" height="4"/></svg><svg viewBox="0 0 4 4" x="1160" y="968" width="64" height="64" shape-rendering="auto"><path fill="#000000" d="M0.85,4h2.3A0.85,0.85,0,0,0,4,3.15V0.85A0.85,0.85,0,0,0,3.15,0H0V4Z"/></svg><svg viewBox="0 0 4 4" x="1288" y="968" width="64" height="64" shape-rendering="auto"><path fill="#000000" d="M3.15,4A0.85,0.85,0,0,0,4,3.15V4Z"/></svg><svg viewBox="0 0 4 4" x="1352" y="968" width="64" height="64" shape-rendering="auto"><path fill="#000000" d="M0.85,0A0.85,0.85,0,0,0,0,0.85V4H4V0H0.85Z"/></svg><svg viewBox="0 0 4 4" x="1416" y="968" width="64" height="64" shape-rendering="auto"><rect fill="#000000" width="4" height="4"/></svg><svg viewBox="0 0 4 4" x="1480" y="968" width="64" height="64" shape-rendering="auto"><rect fill="#000000" width="4" height="4"/></svg><svg viewBox="0 0 4 4" x="1544" y="968" width="64" height="64" shape-rendering="auto"><path fill="#000000" d="M0.85,4h2.3A0.85,0.85,0,0,0,4,3.15V0.85A0.85,0.85,0,0,0,3.15,0H0V4Z"/></svg><svg viewBox="0 0 4 4" x="1672" y="968" width="64" height="64" shape-rendering="auto"><path fill="#000000" d="M3.15,0H0.85A0.85,0.85,0,0,0,0,0.85v2.3A0.85,0.85,0,0,0,0.85,4H4V0Z"/></svg><svg viewBox="0 0 4 4" x="1736" y="968" width="64" height="64" shape-rendering="auto"><path fill="#000000" d="M0.85,4h2.3A0.85,0.85,0,0,0,4,3.15V0.85A0.85,0.85,0,0,0,3.15,0H0V4Z"/></svg><svg viewBox="0 0 4 4" x="200" y="1032" width="64" height="64" shape-rendering="auto"><path fill="#000000" d="M4,3.15V0.85A0.85,0.85,0,0,0,3.15,0H0.85A0.85,0.85,0,0,0,0,0.85V4H4Z"/></svg><svg viewBox="0 0 4 4" x="328" y="1032" width="64" height="64" shape-rendering="auto"><path fill="#000000" d="M3.15,4A0.85,0.85,0,0,0,4,3.15V4Z"/></svg><svg viewBox="0 0 4 4" x="392" y="1032" width="64" height="64" shape-rendering="auto"><path fill="#000000" d="M0.85,0A0.85,0.85,0,0,0,0,0.85V4H4V0H0.85Z"/></svg><svg viewBox="0 0 4 4" x="456" y="1032" width="64" height="64" shape-rendering="auto"><path fill="#000000" d="M4,3.15A0.85,0.85,0,0,1,3.15,4H0V0H4V3.15Z"/></svg><svg viewBox="0 0 4 4" x="520" y="1032" width="64" height="64" shape-rendering="auto"><path fill="#000000" d="M0.85,0H0V0.85A0.85,0.85,0,0,1,0.85,0Z"/></svg><svg viewBox="0 0 4 4" x="648" y="1032" width="64" height="64" shape-rendering="auto"><rect fill="#000000" width="4" height="4" rx="0.85"/></svg><svg viewBox="0 0 4 4" x="840" y="1032" width="64" height="64" shape-rendering="auto"><rect fill="#000000" width="4" height="4" rx="0.85"/></svg><svg viewBox="0 0 4 4" x="968" y="1032" width="64" height="64" shape-rendering="auto"><rect fill="#000000" width="4" height="4" rx="0.85"/></svg><svg viewBox="0 0 4 4" x="1032" y="1032" width="64" height="64" shape-rendering="auto"><path fill="#000000" d="M4,0.85V0H3.15A0.85,0.85,0,0,1,4,0.85Z"/></svg><svg viewBox="0 0 4 4" x="1096" y="1032" width="64" height="64" shape-rendering="auto"><path fill="#000000" d="M0,3.15A0.85,0.85,0,0,0,0.85,4h2.3A0.85,0.85,0,0,0,4,3.15V0H0V3.15Z"/></svg><svg viewBox="0 0 4 4" x="1160" y="1032" width="64" height="64" shape-rendering="auto"><path fill="#000000" d="M0.85,0H0V0.85A0.85,0.85,0,0,1,0.85,0Z"/></svg><svg viewBox="0 0 4 4" x="1224" y="1032" width="64" height="64" shape-rendering="auto"><path fill="#000000" d="M3.15,0H0.85A0.85,0.85,0,0,0,0,0.85v2.3A0.85,0.85,0,0,0,0.85,4H4V0Z"/></svg><svg viewBox="0 0 4 4" x="1288" y="1032" width="64" height="64" shape-rendering="auto"><rect fill="#000000" width="4" height="4"/></svg><svg viewBox="0 0 4 4" x="1352" y="1032" width="64" height="64" shape-rendering="auto"><rect fill="#000000" width="4" height="4"/></svg><svg viewBox="0 0 4 4" x="1416" y="1032" width="64" height="64" shape-rendering="auto"><rect fill="#000000" width="4" height="4"/></svg><svg viewBox="0 0 4 4" x="1480" y="1032" width="64" height="64" shape-rendering="auto"><rect fill="#000000" width="4" height="4"/></svg><svg viewBox="0 0 4 4" x="1544" y="1032" width="64" height="64" shape-rendering="auto"><path fill="#000000" d="M0.85,0H0V0.85A0.85,0.85,0,0,1,0.85,0Z"/></svg><svg viewBox="0 0 4 4" x="200" y="1096" width="64" height="64" shape-rendering="auto"><rect fill="#000000" width="4" height="4"/></svg><svg viewBox="0 0 4 4" x="328" y="1096" width="64" height="64" shape-rendering="auto"><path fill="#000000" d="M3.15,0H0.85A0.85,0.85,0,0,0,0,0.85v2.3A0.85,0.85,0,0,0,0.85,4H4V0Z"/></svg><svg viewBox="0 0 4 4" x="392" y="1096" width="64" height="64" shape-rendering="auto"><rect fill="#000000" width="4" height="4"/></svg><svg viewBox="0 0 4 4" x="456" y="1096" width="64" height="64" shape-rendering="auto"><path fill="#000000" d="M0.85,0H0V0.85A0.85,0.85,0,0,1,0.85,0Z"/></svg><svg viewBox="0 0 4 4" x="456" y="1096" width="64" height="64" shape-rendering="auto"><path fill="#000000" d="M0.85,4A0.85,0.85,0,0,1,0,3.15V4Z"/></svg><svg viewBox="0 0 4 4" x="520" y="1096" width="64" height="64" shape-rendering="auto"><path fill="#000000" d="M3.15,0H0.85A0.85,0.85,0,0,0,0,0.85v2.3A0.85,0.85,0,0,0,0.85,4H4V0Z"/></svg><svg viewBox="0 0 4 4" x="584" y="1096" width="64" height="64" shape-rendering="auto"><path fill="#000000" d="M0.85,4h2.3A0.85,0.85,0,0,0,4,3.15V0.85A0.85,0.85,0,0,0,3.15,0H0V4Z"/></svg><svg viewBox="0 0 4 4" x="648" y="1096" width="64" height="64" shape-rendering="auto"><path fill="#000000" d="M3.15,4A0.85,0.85,0,0,0,4,3.15V4Z"/></svg><svg viewBox="0 0 4 4" x="712" y="1096" width="64" height="64" shape-rendering="auto"><path fill="#000000" d="M4,3.15V0.85A0.85,0.85,0,0,0,3.15,0H0.85A0.85,0.85,0,0,0,0,0.85V4H4Z"/></svg><svg viewBox="0 0 4 4" x="776" y="1096" width="64" height="64" shape-rendering="auto"><path fill="#000000" d="M0.85,4A0.85,0.85,0,0,1,0,3.15V4Z"/></svg><svg viewBox="0 0 4 4" x="1032" y="1096" width="64" height="64" shape-rendering="auto"><rect fill="#000000" width="4" height="4" rx="0.85"/></svg><svg viewBox="0 0 4 4" x="1224" y="1096" width="64" height="64" shape-rendering="auto"><path fill="#000000" d="M4,0.85V0H3.15A0.85,0.85,0,0,1,4,0.85Z"/></svg><svg viewBox="0 0 4 4" x="1288" y="1096" width="64" height="64" shape-rendering="auto"><rect fill="#000000" width="4" height="4"/></svg><svg viewBox="0 0 4 4" x="1352" y="1096" width="64" height="64" shape-rendering="auto"><path fill="#000000" d="M4,3.15A0.85,0.85,0,0,1,3.15,4H0V0H4V3.15Z"/></svg><svg viewBox="0 0 4 4" x="1416" y="1096" width="64" height="64" shape-rendering="auto"><path fill="#000000" d="M0.85,0H0V0.85A0.85,0.85,0,0,1,0.85,0Z"/></svg><svg viewBox="0 0 4 4" x="1416" y="1096" width="64" height="64" shape-rendering="auto"><path fill="#000000" d="M4,0.85V0H3.15A0.85,0.85,0,0,1,4,0.85Z"/></svg><svg viewBox="0 0 4 4" x="1480" y="1096" width="64" height="64" shape-rendering="auto"><path fill="#000000" d="M0,3.15A0.85,0.85,0,0,0,0.85,4h2.3A0.85,0.85,0,0,0,4,3.15V0H0V3.15Z"/></svg><svg viewBox="0 0 4 4" x="1608" y="1096" width="64" height="64" shape-rendering="auto"><path fill="#000000" d="M3.15,0H0.85A0.85,0.85,0,0,0,0,0.85v2.3A0.85,0.85,0,0,0,0.85,4H4V0Z"/></svg><svg viewBox="0 0 4 4" x="1672" y="1096" width="64" height="64" shape-rendering="auto"><rect fill="#000000" width="4" height="4"/></svg><svg viewBox="0 0 4 4" x="1736" y="1096" width="64" height="64" shape-rendering="auto"><path fill="#000000" d="M3.15,0A0.85,0.85,0,0,1,4,0.85V4H0V0H3.15Z"/></svg><svg viewBox="0 0 4 4" x="200" y="1160" width="64" height="64" shape-rendering="auto"><rect fill="#000000" width="4" height="4"/></svg><svg viewBox="0 0 4 4" x="328" y="1160" width="64" height="64" shape-rendering="auto"><path fill="#000000" d="M4,0.85V0H3.15A0.85,0.85,0,0,1,4,0.85Z"/></svg><svg viewBox="0 0 4 4" x="328" y="1160" width="64" height="64" shape-rendering="auto"><path fill="#000000" d="M3.15,4A0.85,0.85,0,0,0,4,3.15V4Z"/></svg><svg viewBox="0 0 4 4" x="392" y="1160" width="64" height="64" shape-rendering="auto"><rect fill="#000000" width="4" height="4"/></svg><svg viewBox="0 0 4 4" x="456" y="1160" width="64" height="64" shape-rendering="auto"><path fill="#000000" d="M0.85,4h2.3A0.85,0.85,0,0,0,4,3.15V0.85A0.85,0.85,0,0,0,3.15,0H0V4Z"/></svg><svg viewBox="0 0 4 4" x="648" y="1160" width="64" height="64" shape-rendering="auto"><path fill="#000000" d="M3.15,0H0.85A0.85,0.85,0,0,0,0,0.85v2.3A0.85,0.85,0,0,0,0.85,4H4V0Z"/></svg><svg viewBox="0 0 4 4" x="712" y="1160" width="64" height="64" shape-rendering="auto"><rect fill="#000000" width="4" height="4"/></svg><svg viewBox="0 0 4 4" x="776" y="1160" width="64" height="64" shape-rendering="auto"><rect fill="#000000" width="4" height="4"/></svg><svg viewBox="0 0 4 4" x="840" y="1160" width="64" height="64" shape-rendering="auto"><path fill="#000000" d="M0.85,4h2.3A0.85,0.85,0,0,0,4,3.15V0.85A0.85,0.85,0,0,0,3.15,0H0V4Z"/></svg><svg viewBox="0 0 4 4" x="968" y="1160" width="64" height="64" shape-rendering="auto"><path fill="#000000" d="M4,3.15V0.85A0.85,0.85,0,0,0,3.15,0H0.85A0.85,0.85,0,0,0,0,0.85V4H4Z"/></svg><svg viewBox="0 0 4 4" x="1096" y="1160" width="64" height="64" shape-rendering="auto"><rect fill="#000000" width="4" height="4" rx="0.85"/></svg><svg viewBox="0 0 4 4" x="1224" y="1160" width="64" height="64" shape-rendering="auto"><path fill="#000000" d="M3.15,4A0.85,0.85,0,0,0,4,3.15V4Z"/></svg><svg viewBox="0 0 4 4" x="1288" y="1160" width="64" height="64" shape-rendering="auto"><rect fill="#000000" width="4" height="4"/></svg><svg viewBox="0 0 4 4" x="1352" y="1160" width="64" height="64" shape-rendering="auto"><path fill="#000000" d="M0.85,0H0V0.85A0.85,0.85,0,0,1,0.85,0Z"/></svg><svg viewBox="0 0 4 4" x="1352" y="1160" width="64" height="64" shape-rendering="auto"><path fill="#000000" d="M0.85,4A0.85,0.85,0,0,1,0,3.15V4Z"/></svg><svg viewBox="0 0 4 4" x="1608" y="1160" width="64" height="64" shape-rendering="auto"><path fill="#000000" d="M4,0.85V0H3.15A0.85,0.85,0,0,1,4,0.85Z"/></svg><svg viewBox="0 0 4 4" x="1672" y="1160" width="64" height="64" shape-rendering="auto"><path fill="#000000" d="M0,3.15A0.85,0.85,0,0,0,0.85,4H4V0H0V3.15Z"/></svg><svg viewBox="0 0 4 4" x="1736" y="1160" width="64" height="64" shape-rendering="auto"><rect fill="#000000" width="4" height="4"/></svg><svg viewBox="0 0 4 4" x="200" y="1224" width="64" height="64" shape-rendering="auto"><path fill="#000000" d="M0,3.15A0.85,0.85,0,0,0,0.85,4h2.3A0.85,0.85,0,0,0,4,3.15V0H0V3.15Z"/></svg><svg viewBox="0 0 4 4" x="328" y="1224" width="64" height="64" shape-rendering="auto"><path fill="#000000" d="M3.15,0H0.85A0.85,0.85,0,0,0,0,0.85v2.3A0.85,0.85,0,0,0,0.85,4H4V0Z"/></svg><svg viewBox="0 0 4 4" x="392" y="1224" width="64" height="64" shape-rendering="auto"><path fill="#000000" d="M4,3.15A0.85,0.85,0,0,1,3.15,4H0V0H4V3.15Z"/></svg><svg viewBox="0 0 4 4" x="456" y="1224" width="64" height="64" shape-rendering="auto"><path fill="#000000" d="M0.85,0H0V0.85A0.85,0.85,0,0,1,0.85,0Z"/></svg><svg viewBox="0 0 4 4" x="584" y="1224" width="64" height="64" shape-rendering="auto"><rect fill="#000000" width="4" height="4" rx="0.85"/></svg><svg viewBox="0 0 4 4" x="968" y="1224" width="64" height="64" shape-rendering="auto"><path fill="#000000" d="M0,3.15A0.85,0.85,0,0,0,0.85,4h2.3A0.85,0.85,0,0,0,4,3.15V0H0V3.15Z"/></svg><svg viewBox="0 0 4 4" x="1160" y="1224" width="64" height="64" shape-rendering="auto"><path fill="#000000" d="M3.15,0H0.85A0.85,0.85,0,0,0,0,0.85v2.3A0.85,0.85,0,0,0,0.85,4H4V0Z"/></svg><svg viewBox="0 0 4 4" x="1224" y="1224" width="64" height="64" shape-rendering="auto"><rect fill="#000000" width="4" height="4"/></svg><svg viewBox="0 0 4 4" x="1288" y="1224" width="64" height="64" shape-rendering="auto"><rect fill="#000000" width="4" height="4"/></svg><svg viewBox="0 0 4 4" x="1352" y="1224" width="64" height="64" shape-rendering="auto"><rect fill="#000000" width="4" height="4"/></svg><svg viewBox="0 0 4 4" x="1416" y="1224" width="64" height="64" shape-rendering="auto"><rect fill="#000000" width="4" height="4"/></svg><svg viewBox="0 0 4 4" x="1480" y="1224" width="64" height="64" shape-rendering="auto"><rect fill="#000000" width="4" height="4"/></svg><svg viewBox="0 0 4 4" x="1544" y="1224" width="64" height="64" shape-rendering="auto"><path fill="#000000" d="M0.85,4h2.3A0.85,0.85,0,0,0,4,3.15V0.85A0.85,0.85,0,0,0,3.15,0H0V4Z"/></svg><svg viewBox="0 0 4 4" x="1672" y="1224" width="64" height="64" shape-rendering="auto"><path fill="#000000" d="M4,0.85V0H3.15A0.85,0.85,0,0,1,4,0.85Z"/></svg><svg viewBox="0 0 4 4" x="1736" y="1224" width="64" height="64" shape-rendering="auto"><rect fill="#000000" width="4" height="4"/></svg><svg viewBox="0 0 4 4" x="712" y="1288" width="64" height="64" shape-rendering="auto"><path fill="#000000" d="M4,3.15V0.85A0.85,0.85,0,0,0,3.15,0H0.85A0.85,0.85,0,0,0,0,0.85V4H4Z"/></svg><svg viewBox="0 0 4 4" x="776" y="1288" width="64" height="64" shape-rendering="auto"><path fill="#000000" d="M0.85,4A0.85,0.85,0,0,1,0,3.15V4Z"/></svg><svg viewBox="0 0 4 4" x="1032" y="1288" width="64" height="64" shape-rendering="auto"><path fill="#000000" d="M3.15,4A0.85,0.85,0,0,0,4,3.15V4Z"/></svg><svg viewBox="0 0 4 4" x="1096" y="1288" width="64" height="64" shape-rendering="auto"><path fill="#000000" d="M4,3.15V0.85A0.85,0.85,0,0,0,3.15,0H0.85A0.85,0.85,0,0,0,0,0.85V4H4Z"/></svg><svg viewBox="0 0 4 4" x="1160" y="1288" width="64" height="64" shape-rendering="auto"><path fill="#000000" d="M4,0.85V0H3.15A0.85,0.85,0,0,1,4,0.85Z"/></svg><svg viewBox="0 0 4 4" x="1224" y="1288" width="64" height="64" shape-rendering="auto"><rect fill="#000000" width="4" height="4"/></svg><svg viewBox="0 0 4 4" x="1288" y="1288" width="64" height="64" shape-rendering="auto"><path fill="#000000" d="M0.85,0H0V0.85A0.85,0.85,0,0,1,0.85,0Z"/></svg><svg viewBox="0 0 4 4" x="1416" y="1288" width="64" height="64" shape-rendering="auto"><path fill="#000000" d="M4,0.85V0H3.15A0.85,0.85,0,0,1,4,0.85Z"/></svg><svg viewBox="0 0 4 4" x="1480" y="1288" width="64" height="64" shape-rendering="auto"><rect fill="#000000" width="4" height="4"/></svg><svg viewBox="0 0 4 4" x="1544" y="1288" width="64" height="64" shape-rendering="auto"><path fill="#000000" d="M0.85,0H0V0.85A0.85,0.85,0,0,1,0.85,0Z"/></svg><svg viewBox="0 0 4 4" x="1672" y="1288" width="64" height="64" shape-rendering="auto"><path fill="#000000" d="M3.15,4A0.85,0.85,0,0,0,4,3.15V4Z"/></svg><svg viewBox="0 0 4 4" x="1736" y="1288" width="64" height="64" shape-rendering="auto"><rect fill="#000000" width="4" height="4"/></svg><svg viewBox="0 0 4 4" x="712" y="1352" width="64" height="64" shape-rendering="auto"><path fill="#000000" d="M0,3.15A0.85,0.85,0,0,0,0.85,4H4V0H0V3.15Z"/></svg><svg viewBox="0 0 4 4" x="776" y="1352" width="64" height="64" shape-rendering="auto"><path fill="#000000" d="M0.85,4h2.3A0.85,0.85,0,0,0,4,3.15V0.85A0.85,0.85,0,0,0,3.15,0H0V4Z"/></svg><svg viewBox="0 0 4 4" x="840" y="1352" width="64" height="64" shape-rendering="auto"><path fill="#000000" d="M3.15,4A0.85,0.85,0,0,0,4,3.15V4Z"/></svg><svg viewBox="0 0 4 4" x="904" y="1352" width="64" height="64" shape-rendering="auto"><path fill="#000000" d="M0.85,0A0.85,0.85,0,0,0,0,0.85V4H4V0H0.85Z"/></svg><svg viewBox="0 0 4 4" x="968" y="1352" width="64" height="64" shape-rendering="auto"><rect fill="#000000" width="4" height="4"/></svg><svg viewBox="0 0 4 4" x="1032" y="1352" width="64" height="64" shape-rendering="auto"><rect fill="#000000" width="4" height="4"/></svg><svg viewBox="0 0 4 4" x="1096" y="1352" width="64" height="64" shape-rendering="auto"><path fill="#000000" d="M4,3.15A0.85,0.85,0,0,1,3.15,4H0V0H4V3.15Z"/></svg><svg viewBox="0 0 4 4" x="1224" y="1352" width="64" height="64" shape-rendering="auto"><rect fill="#000000" width="4" height="4"/></svg><svg viewBox="0 0 4 4" x="1352" y="1352" width="64" height="64" shape-rendering="auto"><rect fill="#000000" width="4" height="4" rx="0.85"/></svg><svg viewBox="0 0 4 4" x="1480" y="1352" width="64" height="64" shape-rendering="auto"><rect fill="#000000" width="4" height="4"/></svg><svg viewBox="0 0 4 4" x="1544" y="1352" width="64" height="64" shape-rendering="auto"><path fill="#000000" d="M0.85,4A0.85,0.85,0,0,1,0,3.15V4Z"/></svg><svg viewBox="0 0 4 4" x="1608" y="1352" width="64" height="64" shape-rendering="auto"><path fill="#000000" d="M3.15,0H0.85A0.85,0.85,0,0,0,0,0.85v2.3A0.85,0.85,0,0,0,0.85,4H4V0Z"/></svg><svg viewBox="0 0 4 4" x="1672" y="1352" width="64" height="64" shape-rendering="auto"><rect fill="#000000" width="4" height="4"/></svg><svg viewBox="0 0 4 4" x="1736" y="1352" width="64" height="64" shape-rendering="auto"><path fill="#000000" d="M4,3.15A0.85,0.85,0,0,1,3.15,4H0V0H4V3.15Z"/></svg><svg viewBox="0 0 4 4" x="840" y="1416" width="64" height="64" shape-rendering="auto"><path fill="#000000" d="M3.15,0H0.85A0.85,0.85,0,0,0,0,0.85v2.3A0.85,0.85,0,0,0,0.85,4H4V0Z"/></svg><svg viewBox="0 0 4 4" x="904" y="1416" width="64" height="64" shape-rendering="auto"><rect fill="#000000" width="4" height="4"/></svg><svg viewBox="0 0 4 4" x="968" y="1416" width="64" height="64" shape-rendering="auto"><path fill="#000000" d="M0.85,0H0V0.85A0.85,0.85,0,0,1,0.85,0Z"/></svg><svg viewBox="0 0 4 4" x="968" y="1416" width="64" height="64" shape-rendering="auto"><path fill="#000000" d="M0.85,4A0.85,0.85,0,0,1,0,3.15V4Z"/></svg><svg viewBox="0 0 4 4" x="1224" y="1416" width="64" height="64" shape-rendering="auto"><rect fill="#000000" width="4" height="4"/></svg><svg viewBox="0 0 4 4" x="1288" y="1416" width="64" height="64" shape-rendering="auto"><path fill="#000000" d="M0.85,4A0.85,0.85,0,0,1,0,3.15V4Z"/></svg><svg viewBox="0 0 4 4" x="1416" y="1416" width="64" height="64" shape-rendering="auto"><path fill="#000000" d="M3.15,4A0.85,0.85,0,0,0,4,3.15V4Z"/></svg><svg viewBox="0 0 4 4" x="1480" y="1416" width="64" height="64" shape-rendering="auto"><rect fill="#000000" width="4" height="4"/></svg><svg viewBox="0 0 4 4" x="1544" y="1416" width="64" height="64" shape-rendering="auto"><path fill="#000000" d="M3.15,0A0.85,0.85,0,0,1,4,0.85V4H0V0H3.15Z"/></svg><svg viewBox="0 0 4 4" x="712" y="1480" width="64" height="64" shape-rendering="auto"><path fill="#000000" d="M0.85,0A0.85,0.85,0,0,0,0,0.85V4H4V0H0.85Z"/></svg><svg viewBox="0 0 4 4" x="776" y="1480" width="64" height="64" shape-rendering="auto"><path fill="#000000" d="M0.85,4h2.3A0.85,0.85,0,0,0,4,3.15V0.85A0.85,0.85,0,0,0,3.15,0H0V4Z"/></svg><svg viewBox="0 0 4 4" x="840" y="1480" width="64" height="64" shape-rendering="auto"><path fill="#000000" d="M4,0.85V0H3.15A0.85,0.85,0,0,1,4,0.85Z"/></svg><svg viewBox="0 0 4 4" x="904" y="1480" width="64" height="64" shape-rendering="auto"><path fill="#000000" d="M0,3.15A0.85,0.85,0,0,0,0.85,4H4V0H0V3.15Z"/></svg><svg viewBox="0 0 4 4" x="968" y="1480" width="64" height="64" shape-rendering="auto"><path fill="#000000" d="M3.15,0A0.85,0.85,0,0,1,4,0.85V4H0V0H3.15Z"/></svg><svg viewBox="0 0 4 4" x="1096" y="1480" width="64" height="64" shape-rendering="auto"><rect fill="#000000" width="4" height="4" rx="0.85"/></svg><svg viewBox="0 0 4 4" x="1160" y="1480" width="64" height="64" shape-rendering="auto"><path fill="#000000" d="M3.15,4A0.85,0.85,0,0,0,4,3.15V4Z"/></svg><svg viewBox="0 0 4 4" x="1224" y="1480" width="64" height="64" shape-rendering="auto"><rect fill="#000000" width="4" height="4"/></svg><svg viewBox="0 0 4 4" x="1288" y="1480" width="64" height="64" shape-rendering="auto"><rect fill="#000000" width="4" height="4"/></svg><svg viewBox="0 0 4 4" x="1352" y="1480" width="64" height="64" shape-rendering="auto"><rect fill="#000000" width="4" height="4"/></svg><svg viewBox="0 0 4 4" x="1416" y="1480" width="64" height="64" shape-rendering="auto"><rect fill="#000000" width="4" height="4"/></svg><svg viewBox="0 0 4 4" x="1480" y="1480" width="64" height="64" shape-rendering="auto"><rect fill="#000000" width="4" height="4"/></svg><svg viewBox="0 0 4 4" x="1544" y="1480" width="64" height="64" shape-rendering="auto"><path fill="#000000" d="M4,3.15A0.85,0.85,0,0,1,3.15,4H0V0H4V3.15Z"/></svg><svg viewBox="0 0 4 4" x="712" y="1544" width="64" height="64" shape-rendering="auto"><rect fill="#000000" width="4" height="4"/></svg><svg viewBox="0 0 4 4" x="776" y="1544" width="64" height="64" shape-rendering="auto"><path fill="#000000" d="M0.85,0H0V0.85A0.85,0.85,0,0,1,0.85,0Z"/></svg><svg viewBox="0 0 4 4" x="776" y="1544" width="64" height="64" shape-rendering="auto"><path fill="#000000" d="M0.85,4A0.85,0.85,0,0,1,0,3.15V4Z"/></svg><svg viewBox="0 0 4 4" x="904" y="1544" width="64" height="64" shape-rendering="auto"><path fill="#000000" d="M4,0.85V0H3.15A0.85,0.85,0,0,1,4,0.85Z"/></svg><svg viewBox="0 0 4 4" x="968" y="1544" width="64" height="64" shape-rendering="auto"><rect fill="#000000" width="4" height="4"/></svg><svg viewBox="0 0 4 4" x="1032" y="1544" width="64" height="64" shape-rendering="auto"><path fill="#000000" d="M0.85,4A0.85,0.85,0,0,1,0,3.15V4Z"/></svg><svg viewBox="0 0 4 4" x="1160" y="1544" width="64" height="64" shape-rendering="auto"><path fill="#000000" d="M3.15,0H0.85A0.85,0.85,0,0,0,0,0.85v2.3A0.85,0.85,0,0,0,0.85,4H4V0Z"/></svg><svg viewBox="0 0 4 4" x="1224" y="1544" width="64" height="64" shape-rendering="auto"><path fill="#000000" d="M4,3.15A0.85,0.85,0,0,1,3.15,4H0V0H4V3.15Z"/></svg><svg viewBox="0 0 4 4" x="1288" y="1544" width="64" height="64" shape-rendering="auto"><path fill="#000000" d="M0.85,0H0V0.85A0.85,0.85,0,0,1,0.85,0Z"/></svg><svg viewBox="0 0 4 4" x="1288" y="1544" width="64" height="64" shape-rendering="auto"><path fill="#000000" d="M4,0.85V0H3.15A0.85,0.85,0,0,1,4,0.85Z"/></svg><svg viewBox="0 0 4 4" x="1352" y="1544" width="64" height="64" shape-rendering="auto"><path fill="#000000" d="M0,3.15A0.85,0.85,0,0,0,0.85,4h2.3A0.85,0.85,0,0,0,4,3.15V0H0V3.15Z"/></svg><svg viewBox="0 0 4 4" x="1416" y="1544" width="64" height="64" shape-rendering="auto"><path fill="#000000" d="M0.85,0H0V0.85A0.85,0.85,0,0,1,0.85,0Z"/></svg><svg viewBox="0 0 4 4" x="1416" y="1544" width="64" height="64" shape-rendering="auto"><path fill="#000000" d="M4,0.85V0H3.15A0.85,0.85,0,0,1,4,0.85Z"/></svg><svg viewBox="0 0 4 4" x="1480" y="1544" width="64" height="64" shape-rendering="auto"><rect fill="#000000" width="4" height="4"/></svg><svg viewBox="0 0 4 4" x="1544" y="1544" width="64" height="64" shape-rendering="auto"><path fill="#000000" d="M0.85,0H0V0.85A0.85,0.85,0,0,1,0.85,0Z"/></svg><svg viewBox="0 0 4 4" x="1672" y="1544" width="64" height="64" shape-rendering="auto"><path fill="#000000" d="M3.15,0H0.85A0.85,0.85,0,0,0,0,0.85v2.3A0.85,0.85,0,0,0,0.85,4H4V0Z"/></svg><svg viewBox="0 0 4 4" x="1736" y="1544" width="64" height="64" shape-rendering="auto"><path fill="#000000" d="M3.15,0A0.85,0.85,0,0,1,4,0.85V4H0V0H3.15Z"/></svg><svg viewBox="0 0 4 4" x="712" y="1608" width="64" height="64" shape-rendering="auto"><rect fill="#000000" width="4" height="4"/></svg><svg viewBox="0 0 4 4" x="776" y="1608" width="64" height="64" shape-rendering="auto"><path fill="#000000" d="M3.15,0A0.85,0.85,0,0,1,4,0.85V4H0V0H3.15Z"/></svg><svg viewBox="0 0 4 4" x="968" y="1608" width="64" height="64" shape-rendering="auto"><rect fill="#000000" width="4" height="4"/></svg><svg viewBox="0 0 4 4" x="1032" y="1608" width="64" height="64" shape-rendering="auto"><rect fill="#000000" width="4" height="4"/></svg><svg viewBox="0 0 4 4" x="1096" y="1608" width="64" height="64" shape-rendering="auto"><path fill="#000000" d="M3.15,0A0.85,0.85,0,0,1,4,0.85V4H0V0H3.15Z"/></svg><svg viewBox="0 0 4 4" x="1416" y="1608" width="64" height="64" shape-rendering="auto"><path fill="#000000" d="M3.15,4A0.85,0.85,0,0,0,4,3.15V4Z"/></svg><svg viewBox="0 0 4 4" x="1480" y="1608" width="64" height="64" shape-rendering="auto"><rect fill="#000000" width="4" height="4"/></svg><svg viewBox="0 0 4 4" x="1544" y="1608" width="64" height="64" shape-rendering="auto"><path fill="#000000" d="M0.85,4A0.85,0.85,0,0,1,0,3.15V4Z"/></svg><svg viewBox="0 0 4 4" x="1608" y="1608" width="64" height="64" shape-rendering="auto"><rect fill="#000000" width="4" height="4" rx="0.85"/></svg><svg viewBox="0 0 4 4" x="1672" y="1608" width="64" height="64" shape-rendering="auto"><path fill="#000000" d="M4,0.85V0H3.15A0.85,0.85,0,0,1,4,0.85Z"/></svg><svg viewBox="0 0 4 4" x="1736" y="1608" width="64" height="64" shape-rendering="auto"><path fill="#000000" d="M0,3.15A0.85,0.85,0,0,0,0.85,4h2.3A0.85,0.85,0,0,0,4,3.15V0H0V3.15Z"/></svg><svg viewBox="0 0 4 4" x="712" y="1672" width="64" height="64" shape-rendering="auto"><rect fill="#000000" width="4" height="4"/></svg><svg viewBox="0 0 4 4" x="776" y="1672" width="64" height="64" shape-rendering="auto"><path fill="#000000" d="M4,3.15A0.85,0.85,0,0,1,3.15,4H0V0H4V3.15Z"/></svg><svg viewBox="0 0 4 4" x="968" y="1672" width="64" height="64" shape-rendering="auto"><path fill="#000000" d="M0,3.15A0.85,0.85,0,0,0,0.85,4h2.3A0.85,0.85,0,0,0,4,3.15V0H0V3.15Z"/></svg><svg viewBox="0 0 4 4" x="1032" y="1672" width="64" height="64" shape-rendering="auto"><path fill="#000000" d="M0.85,0H0V0.85A0.85,0.85,0,0,1,0.85,0Z"/></svg><svg viewBox="0 0 4 4" x="1032" y="1672" width="64" height="64" shape-rendering="auto"><path fill="#000000" d="M4,0.85V0H3.15A0.85,0.85,0,0,1,4,0.85Z"/></svg><svg viewBox="0 0 4 4" x="1096" y="1672" width="64" height="64" shape-rendering="auto"><rect fill="#000000" width="4" height="4"/></svg><svg viewBox="0 0 4 4" x="1160" y="1672" width="64" height="64" shape-rendering="auto"><path fill="#000000" d="M0.85,4A0.85,0.85,0,0,1,0,3.15V4Z"/></svg><svg viewBox="0 0 4 4" x="1224" y="1672" width="64" height="64" shape-rendering="auto"><path fill="#000000" d="M3.15,0H0.85A0.85,0.85,0,0,0,0,0.85v2.3A0.85,0.85,0,0,0,0.85,4H4V0Z"/></svg><svg viewBox="0 0 4 4" x="1288" y="1672" width="64" height="64" shape-rendering="auto"><rect fill="#000000" width="4" height="4"/></svg><svg viewBox="0 0 4 4" x="1352" y="1672" width="64" height="64" shape-rendering="auto"><rect fill="#000000" width="4" height="4"/></svg><svg viewBox="0 0 4 4" x="1416" y="1672" width="64" height="64" shape-rendering="auto"><rect fill="#000000" width="4" height="4"/></svg><svg viewBox="0 0 4 4" x="1480" y="1672" width="64" height="64" shape-rendering="auto"><rect fill="#000000" width="4" height="4"/></svg><svg viewBox="0 0 4 4" x="1544" y="1672" width="64" height="64" shape-rendering="auto"><path fill="#000000" d="M0.85,4h2.3A0.85,0.85,0,0,0,4,3.15V0.85A0.85,0.85,0,0,0,3.15,0H0V4Z"/></svg><svg viewBox="0 0 4 4" x="1608" y="1672" width="64" height="64" shape-rendering="auto"><path fill="#000000" d="M3.15,4A0.85,0.85,0,0,0,4,3.15V4Z"/></svg><svg viewBox="0 0 4 4" x="1672" y="1672" width="64" height="64" shape-rendering="auto"><path fill="#000000" d="M4,3.15V0.85A0.85,0.85,0,0,0,3.15,0H0.85A0.85,0.85,0,0,0,0,0.85V4H4Z"/></svg><svg viewBox="0 0 4 4" x="1736" y="1672" width="64" height="64" shape-rendering="auto"><path fill="#000000" d="M0.85,4A0.85,0.85,0,0,1,0,3.15V4Z"/></svg><svg viewBox="0 0 4 4" x="712" y="1736" width="64" height="64" shape-rendering="auto"><path fill="#000000" d="M0,3.15A0.85,0.85,0,0,0,0.85,4h2.3A0.85,0.85,0,0,0,4,3.15V0H0V3.15Z"/></svg><svg viewBox="0 0 4 4" x="776" y="1736" width="64" height="64" shape-rendering="auto"><path fill="#000000" d="M0.85,0H0V0.85A0.85,0.85,0,0,1,0.85,0Z"/></svg><svg viewBox="0 0 4 4" x="1096" y="1736" width="64" height="64" shape-rendering="auto"><path fill="#000000" d="M0,3.15A0.85,0.85,0,0,0,0.85,4H4V0H0V3.15Z"/></svg><svg viewBox="0 0 4 4" x="1160" y="1736" width="64" height="64" shape-rendering="auto"><path fill="#000000" d="M0.85,4h2.3A0.85,0.85,0,0,0,4,3.15V0.85A0.85,0.85,0,0,0,3.15,0H0V4Z"/></svg><svg viewBox="0 0 4 4" x="1608" y="1736" width="64" height="64" shape-rendering="auto"><path fill="#000000" d="M3.15,0H0.85A0.85,0.85,0,0,0,0,0.85v2.3A0.85,0.85,0,0,0,0.85,4H4V0Z"/></svg><svg viewBox="0 0 4 4" x="1672" y="1736" width="64" height="64" shape-rendering="auto"><rect fill="#000000" width="4" height="4"/></svg><svg viewBox="0 0 4 4" x="1736" y="1736" width="64" height="64" shape-rendering="auto"><path fill="#000000" d="M0.85,4h2.3A0.85,0.85,0,0,0,4,3.15V0.85A0.85,0.85,0,0,0,3.15,0H0V4Z"/></svg><svg version="1.1" id="Ebene_1" x="200" y="200" viewBox="0 0 700 700" style="enable-background:new 0 0 700 700;" xml:space="preserve" width="448" height="448" shape-rendering="auto">

<path fill="#000000" d="M21.2-0.1C9.5-0.1-0.1,9.5-0.1,21.2v78.8v100v100v100v100v100v78.8c0,11.7,9.5,21.3,21.3,21.3h657.6  c11.7,0,21.3-9.5,21.3-21.3V600V500V400V300V200v-100V21.2c0-11.7-9.5-21.3-21.3-21.3H21.2z M600,200v100v100v100v87.8  c0,6.8-5.5,12.2-12.2,12.2H112.2c-6.8,0-12.2-5.5-12.2-12.2V500V400V300V200v-87.8c0-6.8,5.5-12.2,12.2-12.2h475.6  c6.8,0,12.2,5.5,12.2,12.2V200z"/>
</svg>
<svg version="1.1" id="Ebene_1" x="200" y="200" viewBox="0 0 700 700" style="enable-background:new 0 0 700 700;" xml:space="preserve" width="448" height="448" shape-rendering="auto">

<path fill="#000000" d="M500,400V300v-78.8c0-11.7-9.5-21.3-21.3-21.3H221.2c-11.7,0-21.3,9.5-21.3,21.3V300v100v78.8    c0,11.7,9.5,21.3,21.3,21.3h257.5c11.7,0,21.3-9.5,21.3-21.3V400z"/>
</svg>
<svg version="1.1" id="Ebene_1" x="1352" y="200" viewBox="0 0 700 700" style="enable-background:new 0 0 700 700;" xml:space="preserve" width="448" height="448" shape-rendering="auto">

<path fill="#000000" d="M21.2-0.1C9.5-0.1-0.1,9.5-0.1,21.2v78.8v100v100v100v100v100v78.8c0,11.7,9.5,21.3,21.3,21.3h657.6  c11.7,0,21.3-9.5,21.3-21.3V600V500V400V300V200v-100V21.2c0-11.7-9.5-21.3-21.3-21.3H21.2z M600,200v100v100v100v87.8  c0,6.8-5.5,12.2-12.2,12.2H112.2c-6.8,0-12.2-5.5-12.2-12.2V500V400V300V200v-87.8c0-6.8,5.5-12.2,12.2-12.2h475.6  c6.8,0,12.2,5.5,12.2,12.2V200z"/>
</svg>
<svg version="1.1" id="Ebene_1" x="1352" y="200" viewBox="0 0 700 700" style="enable-background:new 0 0 700 700;" xml:space="preserve" width="448" height="448" shape-rendering="auto">

<path fill="#000000" d="M500,400V300v-78.8c0-11.7-9.5-21.3-21.3-21.3H221.2c-11.7,0-21.3,9.5-21.3,21.3V300v100v78.8    c0,11.7,9.5,21.3,21.3,21.3h257.5c11.7,0,21.3-9.5,21.3-21.3V400z"/>
</svg>
<svg version="1.1" id="Ebene_1" x="200" y="1352" viewBox="0 0 700 700" style="enable-background:new 0 0 700 700;" xml:space="preserve" width="448" height="448" shape-rendering="auto">

<path fill="#000000" d="M21.2-0.1C9.5-0.1-0.1,9.5-0.1,21.2v78.8v100v100v100v100v100v78.8c0,11.7,9.5,21.3,21.3,21.3h657.6  c11.7,0,21.3-9.5,21.3-21.3V600V500V400V300V200v-100V21.2c0-11.7-9.5-21.3-21.3-21.3H21.2z M600,200v100v100v100v87.8  c0,6.8-5.5,12.2-12.2,12.2H112.2c-6.8,0-12.2-5.5-12.2-12.2V500V400V300V200v-87.8c0-6.8,5.5-12.2,12.2-12.2h475.6  c6.8,0,12.2,5.5,12.2,12.2V200z"/>
</svg>
<svg version="1.1" id="Ebene_1" x="200" y="1352" viewBox="0 0 700 700" style="enable-background:new 0 0 700 700;" xml:space="preserve" width="448" height="448" shape-rendering="auto">

<path fill="#000000" d="M500,400V300v-78.8c0-11.7-9.5-21.3-21.3-21.3H221.2c-11.7,0-21.3,9.5-21.3,21.3V300v100v78.8    c0,11.7,9.5,21.3,21.3,21.3h257.5c11.7,0,21.3-9.5,21.3-21.3V400z"/>
</svg>
</svg>

<path id="FrameBody" class="frame-color" d="M243.1,289.8H35.9c-19.8,0-35.9,16.1-35.9,36l0,0c0,19.8,16.1,35.9,35.9,35.9H243
	c19.8,0,35.9-16.1,35.9-35.9l0,0C279,305.9,262.9,289.8,243.1,289.8L243.1,289.8z M265.3,0H13.7C6.1,0,0,6.1,0,13.7v251.7
	c0,7.5,6.1,13.7,13.7,13.7h251.7c7.5,0,13.7-6.1,13.7-13.7V13.7C279,6.1,272.9,0,265.3,0z M268.5,261.1c0,4.1-3.3,7.4-7.4,7.4H17.9
	c-4.1,0-7.4-3.3-7.4-7.4V17.9c0-4.1,3.3-7.4,7.4-7.4h243.2c4.1,0,7.4,3.3,7.4,7.4V261.1z"/>
<path id="IconCircle" class="circle-color show_on_light" d="M35.9,297.2c-15.8,0-28.5,12.7-28.5,28.5s12.7,28.5,28.5,28.5s28.5-12.7,28.5-28.5
	C64.4,310,51.7,297.2,35.9,297.2z"/>
<path id="IconCircle" class="circle-color-black hide_on_light" d="M35.9,297.2c-15.8,0-28.5,12.7-28.5,28.5s12.7,28.5,28.5,28.5s28.5-12.7,28.5-28.5
	C64.4,310,51.7,297.2,35.9,297.2z"/>
<path id="IconCircleOutline" class="circle-outline show_on_light" d="M35.9,299.2c14.6,0,26.5,11.9,26.5,26.5s-11.9,26.5-26.5,26.5S9.4,340.3,9.4,325.7
	S21.3,299.2,35.9,299.2 M35.9,297.2c-15.8,0-28.5,12.7-28.5,28.5s12.7,28.5,28.5,28.5s28.5-12.7,28.5-28.5
	C64.4,310,51.7,297.2,35.9,297.2L35.9,297.2z"/>
<path id="PdfIcon" class="icon-color hide_on_light" d="M22.4,343.1c-0.6,0-1.2-0.2-1.7-0.5c-1.3-0.8-1.8-2.1-1.6-3.6c0.5-2.9,4.3-6.1,9.5-8.3
	c1.4-3.2,2.6-6.9,3.6-10.6c-3.3-5.1-4.9-9.8-3.9-12.4c0.4-1.1,1.3-1.8,2.5-1.9c1-0.1,2.4,0.3,3.6,1.7c1.4,1.6,2.7,5,1.1,12.1
	c0.9,1.3,1.9,2.6,3.2,4c1.3,1.5,2.5,2.7,3.6,3.8c7.4-1,9.8,0.1,11,1.1c0.9,0.7,1.4,1.7,1.4,2.9c0,1.7-0.9,3-2.4,3.6
	c-1.7,0.6-5.1,0.7-11-4.4c-1.4,0.2-2.9,0.5-4.6,0.9c-2.1,0.4-4.1,1-5.7,1.7c-2.2,4.9-4.7,8.9-7.2,9.9
	C23.3,343,22.8,343.1,22.4,343.1z M26.5,335.1c-2.7,1.7-4.2,3.4-4.4,4.4c0,0.3,0,0.4,0.2,0.5c0,0,0.1,0,0.2,0
	C23.7,339.6,25.1,337.7,26.5,335.1z M45.5,329.9c2.9,2.1,4.8,2.4,5.7,2.1c0.1-0.1,0.5-0.2,0.5-0.8c0-0.3-0.1-0.4-0.3-0.6
	C50.9,330.2,49.6,329.6,45.5,329.9z M34.5,323.1c-0.6,2-1.3,4-2,6.1c1.2-0.4,2.4-0.7,3.6-0.9c0.9-0.2,1.7-0.3,2.5-0.5
	c-0.7-0.7-1.4-1.5-2.2-2.3C35.7,324.7,35.1,323.9,34.5,323.1z M31.1,308.7c-0.3,0.6,0,3.2,2,6.9c0.4-3.8-0.3-5.5-0.9-6.2
	C31.8,308.9,31.3,308.7,31.1,308.7z"/>
<path id="PdfIconBlack" class="icon-black show_on_light" d="M22.4,343.1c-0.6,0-1.2-0.2-1.7-0.5c-1.3-0.8-1.8-2.1-1.6-3.6c0.5-2.9,4.3-6.1,9.5-8.3
	c1.4-3.2,2.6-6.9,3.6-10.6c-3.3-5.1-4.9-9.8-3.9-12.4c0.4-1.1,1.3-1.8,2.5-1.9c1-0.1,2.4,0.3,3.6,1.7c1.4,1.6,2.7,5,1.1,12.1
	c0.9,1.3,1.9,2.6,3.2,4c1.3,1.5,2.5,2.7,3.6,3.8c7.4-1,9.8,0.1,11,1.1c0.9,0.7,1.4,1.7,1.4,2.9c0,1.7-0.9,3-2.4,3.6
	c-1.7,0.6-5.1,0.7-11-4.4c-1.4,0.2-2.9,0.5-4.6,0.9c-2.1,0.4-4.1,1-5.7,1.7c-2.2,4.9-4.7,8.9-7.2,9.9
	C23.3,343,22.8,343.1,22.4,343.1z M26.5,335.1c-2.7,1.7-4.2,3.4-4.4,4.4c0,0.3,0,0.4,0.2,0.5c0,0,0.1,0,0.2,0
	C23.7,339.6,25.1,337.7,26.5,335.1z M45.5,329.9c2.9,2.1,4.8,2.4,5.7,2.1c0.1-0.1,0.5-0.2,0.5-0.8c0-0.3-0.1-0.4-0.3-0.6
	C50.9,330.2,49.6,329.6,45.5,329.9z M34.5,323.1c-0.6,2-1.3,4-2,6.1c1.2-0.4,2.4-0.7,3.6-0.9c0.9-0.2,1.7-0.3,2.5-0.5
	c-0.7-0.7-1.4-1.5-2.2-2.3C35.7,324.7,35.1,323.9,34.5,323.1z M31.1,308.7c-0.3,0.6,0,3.2,2,6.9c0.4-3.8-0.3-5.5-0.9-6.2
	C31.8,308.9,31.3,308.7,31.1,308.7z"/>
	<svg id="TextArea" x="70" y="295" width="180" height="62" viewBox="0 0 119.130859375 17.588541666667" preserveAspectRatio="xMidYMid meet">
<svg version="1.1" xmlns="http://www.w3.org/2000/svg"><path class="text-color" fill="#FFFFFF" d=" M8.37890625,11.09130859375q0,1.02587890625-0.7412109375,1.61669921875t-2.0625,0.5908203125q-1.396484375,0-2.1591796875-0.37060546875l0-0.9453125q0.49951171875,0.21484375,1.093017578125,0.33837890625t1.109130859375,0.12353515625q0.880859375,0,1.32666015625-0.33837890625t0.44580078125-0.92919921875q0-0.39208984375-0.1611328125-0.64453125t-0.539794921875-0.47265625t-1.146728515625-0.49951171875q-1.09033203125-0.3974609375-1.5576171875-0.937255859375t-0.46728515625-1.393798828125q0-0.91845703125,0.690185546875-1.4609375t1.818115234375-0.54248046875q1.17626953125,0,2.16455078125,0.4404296875l-0.30615234375,0.8486328125q-1.009765625-0.4189453125-1.8798828125-0.4189453125q-0.6982421875,0-1.093017578125,0.30078125t-0.394775390625,0.84326171875q0,0.38671875,0.153076171875,0.641845703125t0.494140625,0.464599609375t1.071533203125,0.47802734375q0.87548828125,0.322265625,1.30517578125,0.625732421875t0.6337890625,0.6982421875t0.2041015625,0.942626953125z M13.32568359375,6.09619140625q-1.267578125,0-1.99267578125,0.8486328125t-0.72509765625,2.3203125q0,1.52001953125,0.70361328125,2.344482421875t2.00341796875,0.824462890625q0.837890625,0,1.88525390625-0.3115234375l0,0.859375q-0.49951171875,0.1826171875-0.96142578125,0.249755859375t-1.0634765625,0.067138671875q-1.73486328125,0-2.672119140625-1.055419921875t-0.937255859375-2.989013671875q0-1.2138671875,0.448486328125-2.126953125t1.30517578125-1.4072265625t2.016845703125-0.494140625q1.24609375,0,2.169921875,0.4619140625l-0.3974609375,0.837890625q-0.93994140625-0.4296875-1.783203125-0.4296875z M21.8388671875,13.19140625l-0.9453125-2.43310546875l-3.115234375,0l-0.9345703125,2.43310546875l-0.9990234375,0l3.06689453125-7.884765625l0.8916015625,0l3.0615234375,7.884765625l-1.02587890625,0z M20.59814453125,9.8828125l-0.880859375-2.37939453125l-0.3759765625-1.17626953125q-0.1611328125,0.64453125-0.33837890625,1.17626953125l-0.8916015625,2.37939453125l2.48681640625,0z M30.16943359375,13.19140625l-1.15478515625,0l-4.20556640625-6.5205078125l-0.04296875,0l0.02685546875,0.43505859375q0.064453125,0.9775390625,0.064453125,1.697265625l0,4.38818359375l-0.9130859375,0l0-7.8525390625l1.14404296875,0l0.24169921875,0.38134765625l2.578125,3.9853515625l1.36962890625,2.13232421875l0.04296875,0q-0.0107421875-0.12890625-0.04296875-0.921142578125t-0.0322265625-1.146728515625l0-4.43115234375l0.923828125,0l0,7.8525390625z  M37.64599609375,13.19140625l-0.99365234375,0l0-6.982421875l-2.45458984375,0l0-0.8701171875l5.88671875,0l0,0.8701171875l-2.4384765625,0l0,6.982421875z M48.13037109375,9.25439453125q0,1.88525390625-0.953369140625,2.96484375t-2.666748046875,1.07958984375q-1.73486328125,0-2.682861328125-1.060791015625t-0.947998046875-2.994384765625q0-1.91748046875,0.942626953125-2.972900390625t2.698974609375-1.055419921875q1.7080078125,0,2.65869140625,1.071533203125t0.95068359375,2.967529296875z M41.92138671875,9.25439453125q0,1.5576171875,0.66064453125,2.3740234375t1.92822265625,0.81640625q1.26220703125,0,1.91748046875-0.8056640625t0.6552734375-2.384765625q0-1.57373046875-0.64990234375-2.371337890625t-1.912109375-0.797607421875q-1.2783203125,0-1.93896484375,0.808349609375t-0.66064453125,2.360595703125z  M59.01220703125,9.18994140625q0,1.9443359375-1.060791015625,2.972900390625t-3.042724609375,1.028564453125l-2.18603515625,0l0-7.8525390625l2.4169921875,0q1.83154296875,0,2.85205078125,1.007080078125t1.0205078125,2.843994140625z M57.97021484375,9.22216796875q0-1.49853515625-0.738525390625-2.269287109375t-2.231689453125-0.770751953125l-1.2890625,0l0,6.16064453125l1.06884765625,0q3.1904296875,0,3.1904296875-3.12060546875z M67.60595703125,9.25439453125q0,1.88525390625-0.953369140625,2.96484375t-2.666748046875,1.07958984375q-1.73486328125,0-2.682861328125-1.060791015625t-0.947998046875-2.994384765625q0-1.91748046875,0.942626953125-2.972900390625t2.698974609375-1.055419921875q1.7080078125,0,2.65869140625,1.071533203125t0.95068359375,2.967529296875z M61.39697265625,9.25439453125q0,1.5576171875,0.66064453125,2.3740234375t1.92822265625,0.81640625q1.26220703125,0,1.91748046875-0.8056640625t0.6552734375-2.384765625q0-1.57373046875-0.64990234375-2.371337890625t-1.912109375-0.797607421875q-1.2783203125,0-1.93896484375,0.808349609375t-0.66064453125,2.360595703125z M76.26953125,13.19140625l-0.9990234375,0l-1.53076171875-5.1455078125q-0.33837890625-1.1494140625-0.3974609375-1.55224609375q-0.0859375,0.61767578125-0.3759765625,1.58447265625l-1.482421875,5.11328125l-0.9990234375,0l-2.07861328125-7.8525390625l1.03125,0l1.21923828125,4.79638671875q0.2470703125,0.93994140625,0.3759765625,1.869140625q0.1181640625-0.880859375,0.4189453125-1.92822265625l1.3857421875-4.7373046875l1.0205078125,0l1.44482421875,4.77490234375q0.279296875,0.92919921875,0.4296875,1.890625q0.0859375-0.7412109375,0.38134765625-1.8798828125l1.2138671875-4.78564453125l1.03125,0z M85.7978515625,13.19140625l-1.15478515625,0l-4.20556640625-6.5205078125l-0.04296875,0l0.02685546875,0.43505859375q0.064453125,0.9775390625,0.064453125,1.697265625l0,4.38818359375l-0.9130859375,0l0-7.8525390625l1.14404296875,0l0.24169921875,0.38134765625l2.578125,3.9853515625l1.36962890625,2.13232421875l0.04296875,0q-0.0107421875-0.12890625-0.04296875-0.921142578125t-0.0322265625-1.146728515625l0-4.43115234375l0.923828125,0l0,7.8525390625z M87.93017578125,13.19140625l0-7.8525390625l0.98828125,0l0,6.9716796875l3.43212890625,0l0,0.880859375l-4.42041015625,0z M100.546875,9.25439453125q0,1.88525390625-0.953369140625,2.96484375t-2.666748046875,1.07958984375q-1.73486328125,0-2.682861328125-1.060791015625t-0.947998046875-2.994384765625q0-1.91748046875,0.942626953125-2.972900390625t2.698974609375-1.055419921875q1.7080078125,0,2.65869140625,1.071533203125t0.95068359375,2.967529296875z M94.337890625,9.25439453125q0,1.5576171875,0.66064453125,2.3740234375t1.92822265625,0.81640625q1.26220703125,0,1.91748046875-0.8056640625t0.6552734375-2.384765625q0-1.57373046875-0.64990234375-2.371337890625t-1.912109375-0.797607421875q-1.2783203125,0-1.93896484375,0.808349609375t-0.66064453125,2.360595703125z M107.20703125,13.19140625l-0.9453125-2.43310546875l-3.115234375,0l-0.9345703125,2.43310546875l-0.9990234375,0l3.06689453125-7.884765625l0.8916015625,0l3.0615234375,7.884765625l-1.02587890625,0z M105.96630859375,9.8828125l-0.880859375-2.37939453125l-0.3759765625-1.17626953125q-0.1611328125,0.64453125-0.33837890625,1.17626953125l-0.8916015625,2.37939453125l2.48681640625,0z M115.60205078125,9.18994140625q0,1.9443359375-1.060791015625,2.972900390625t-3.042724609375,1.028564453125l-2.18603515625,0l0-7.8525390625l2.4169921875,0q1.83154296875,0,2.85205078125,1.007080078125t1.0205078125,2.843994140625z M114.56005859375,9.22216796875q0-1.49853515625-0.738525390625-2.269287109375t-2.231689453125-0.770751953125l-1.2890625,0l0,6.16064453125l1.06884765625,0q3.1904296875,0,3.1904296875-3.12060546875z "/></svg>
</svg>

</svg>
