<?xml version="1.0" encoding="UTF-8"?>
<!DOCTYPE svg PUBLIC "-//W3C//DTD SVG 1.1//EN" "http://www.w3.org/Graphics/SVG/1.1/DTD/svg11.dtd">
<!-- Creator: CorelDRAW X7 -->
<svg xmlns="http://www.w3.org/2000/svg" xml:space="preserve" width="28.4922mm" height="27.8035mm" version="1.1" style="shape-rendering:geometricPrecision; text-rendering:geometricPrecision; image-rendering:optimizeQuality; fill-rule:evenodd; clip-rule:evenodd"
viewBox="0 0 72 71"
 xmlns:xlink="http://www.w3.org/1999/xlink">
 <defs>
  <style type="text/css">
   <![CDATA[
    .fil0 {fill:black}
    .fil1 {fill:white}
   ]]>
  </style>
 </defs>
 <g id="Layer_x0020_1">
  <metadata id="CorelCorpID_0Corel-Layer"/>
  <g id="_1891618639328">
   <path class="fil0" d="M58 7l-16 0c1,-3 8,-7 13,-3 1,1 3,2 3,3zm-19 0c-7,1 -15,0 -22,0 -2,0 -4,1 -4,3 0,2 3,1 5,1 2,0 10,-1 8,3 0,1 -3,0 -4,0l-11 0c-2,1 -2,2 -1,4 1,1 13,0 16,0 2,0 3,0 3,3 -1,1 -6,0 -8,0 -2,0 -16,0 -17,0 -1,1 -2,2 -2,3 1,1 2,1 3,1 6,0 12,0 18,0 2,0 7,-1 7,2 -1,2 -6,2 -8,2 -3,0 -5,0 -8,0 -2,0 -3,-1 -4,1 -2,4 7,2 10,2 4,0 12,-1 11,2 -1,2 -2,1 -4,1 -2,0 -6,0 -8,0 -3,1 -4,4 0,4 3,0 6,0 9,0 1,2 1,2 2,3 1,0 2,0 3,0 2,-1 2,-2 5,-2 2,0 3,1 4,2l9 0c1,0 2,-2 4,-2 3,0 4,1 5,2 9,0 2,-6 7,-26 1,-1 1,-3 2,-4 0,-1 1,-3 1,-4l-9 -1c-1,0 -1,-1 -2,-2 -4,-6 -13,-7 -18,0 0,0 -1,2 -2,2z"/>
   <path class="fil0" d="M55 41c-5,1 -3,8 2,6 4,-1 3,-8 -2,-6z"/>
   <path class="fil0" d="M37 41c-5,1 -3,8 2,7 4,-2 3,-9 -2,-7z"/>
   <path class="fil1" d="M43 22c0,-3 0,-8 3,-9 4,-1 5,3 6,6 0,4 -1,7 -3,9 -2,0 -4,-1 -5,-2 0,-1 -1,-2 -1,-4zm5 7c-1,0 -1,0 -2,1 -2,0 -5,2 -6,3 -1,1 0,2 0,2 3,1 2,-2 3,-3 1,0 2,1 3,1 1,1 2,2 4,2 4,1 6,-3 6,-4 -1,0 -1,1 -2,2 -2,1 -3,-1 -5,-2 -1,0 -1,0 -3,0 4,-2 8,-4 10,-8 1,-6 -2,-10 -7,-11 -6,0 -10,3 -10,8 -1,6 4,9 8,9 0,0 0,0 1,0z"/>
  </g>
  <g id="_1891618632064">
   <path class="fil1" d="M4 57c0,-3 1,-7 3,-8 4,-2 6,2 6,5 0,4 0,8 -3,9 -2,1 -4,0 -4,-1 -1,-1 -2,-3 -2,-5zm5 7c-1,0 -1,1 -2,1 -2,1 -5,2 -6,4 0,1 0,1 1,2 2,0 1,-3 2,-3 1,-1 3,0 3,1 2,1 2,1 4,1 4,1 6,-2 6,-3 -1,-1 -1,0 -2,1 -2,1 -3,0 -5,-1 -1,-1 -1,-1 -3,-1 4,-2 9,-3 10,-8 1,-5 -2,-10 -7,-10 -5,-1 -10,3 -10,8 0,5 4,9 8,8 1,0 1,0 1,0z"/>
   <path class="fil1" d="M19 53c2,0 1,1 1,4 0,3 0,7 4,7 2,0 3,-1 4,-2l0 2 4 0 0 -1c-1,0 -1,0 -1,-2 0,-2 0,-6 0,-9l-5 0 0 1c2,0 2,2 2,5 0,0 0,2 -1,3 0,0 0,1 -1,1 -2,1 -2,-2 -2,-4 0,-2 0,-4 0,-6l-5 0 0 1z"/>
   <path class="fil1" d="M68 58c0,2 0,3 -1,4 -1,0 -2,1 -3,0 -1,-1 -1,-4 4,-4zm-7 -5l0 2 2 0c1,-1 1,-2 3,-2 2,1 2,3 2,4 -4,0 -8,1 -8,5 1,2 4,3 7,1 0,0 0,-1 1,-1l0 2 4 0 0 -1c0,0 -1,0 -1,-1 0,-1 0,-2 0,-3 0,-2 0,-5 -1,-6 -1,-2 -7,-1 -9,0z"/>
   <path class="fil1" d="M38 57c0,-2 0,-4 2,-4 2,0 2,2 2,4l-4 0zm7 5l-1 -1c0,0 -2,2 -4,1 -2,0 -2,-2 -2,-4l8 0c0,-3 -2,-6 -5,-6 -3,-1 -6,1 -7,4 0,3 0,6 3,8 2,0 5,0 7,-1 0,0 1,-1 1,-1z"/>
   <path class="fil1" d="M47 53c1,0 1,1 1,2l2 6c1,1 1,2 1,3 3,0 3,0 3,-1l4 -8c0,-1 1,-2 2,-2l0 -1 -5 0 0 1c1,0 1,0 1,1 0,1 -2,6 -2,6 -1,0 -1,-1 -1,-2 0,0 0,-1 -1,-2 -1,-4 0,-2 1,-3l0 -1 -6 0 0 1z"/>
  </g>
 </g>
</svg>
