<?xml version="1.0" encoding="UTF-8"?>
<!DOCTYPE svg PUBLIC "-//W3C//DTD SVG 1.1//EN" "http://www.w3.org/Graphics/SVG/1.1/DTD/svg11.dtd">
<!-- Creator: CorelDRAW X7 -->
<svg xmlns="http://www.w3.org/2000/svg" xml:space="preserve" width="43.4228mm" height="18.7626mm" version="1.1" style="shape-rendering:geometricPrecision; text-rendering:geometricPrecision; image-rendering:optimizeQuality; fill-rule:evenodd; clip-rule:evenodd"
viewBox="0 0 168 73"
 xmlns:xlink="http://www.w3.org/1999/xlink">
 <defs>
  <style type="text/css">
   <![CDATA[
    .fil0 {fill:black}
    .fil1 {fill:white}
   ]]>
  </style>
 </defs>
 <g id="Layer_x0020_1">
  <metadata id="CorelCorpID_0Corel-Layer"/>
  <path class="fil0" d="M86 11l-25 0c2,-6 12,-11 20,-5 2,1 4,3 5,5zm-29 0c-11,1 -23,0 -35,0 -2,0 -5,0 -5,4 0,3 4,2 7,2 4,0 16,-1 13,4 -1,2 -5,1 -7,1l-16 0c-3,0 -4,3 -2,5 1,1 19,1 24,1 3,0 5,0 5,3 -1,2 -9,2 -12,2 -4,0 -25,-1 -27,0 -1,0 -3,1 -2,4 1,1 3,1 5,1 9,0 18,0 27,0 3,0 11,-1 10,3 0,4 -8,3 -11,3 -5,0 -9,0 -13,0 -3,0 -5,-1 -5,1 -4,6 10,4 15,4 5,0 18,-1 16,4 -1,1 -3,1 -5,1 -4,0 -10,0 -14,0 -4,0 -5,6 1,6 4,0 10,0 14,0 1,2 1,2 2,4 2,1 4,0 6,0 2,-1 3,-3 7,-3 3,0 5,2 6,3l14 0c2,0 2,-3 6,-3 4,0 6,1 7,3 15,1 3,-9 12,-39 0,-3 1,-5 2,-7 1,-2 2,-5 2,-7l-14 0c-1,-1 -1,-3 -2,-4 -7,-9 -21,-10 -28,0 -1,1 -2,3 -3,4z"/>
  <path class="fil0" d="M80 62c-6,2 -4,13 3,10 7,-1 5,-12 -3,-10z"/>
  <path class="fil0" d="M53 62c-7,1 -5,12 3,11 7,-2 5,-13 -3,-11z"/>
  <g id="_1891618633216">
   <path class="fil1" d="M64 31c0,-6 1,-12 5,-14 6,-2 8,5 9,9 0,6 -1,11 -5,13 -3,1 -5,0 -6,-2 -2,-1 -2,-4 -3,-6zm8 10c-1,0 -2,1 -3,1 -3,1 -8,3 -9,6 -1,1 -1,2 0,3 4,1 2,-4 4,-5 1,-1 4,2 5,2 2,1 3,2 6,3 6,1 10,-5 9,-6 -2,-1 -1,1 -3,2 -2,1 -5,-1 -7,-2 -2,-1 -3,-1 -5,-1 6,-3 13,-6 15,-13 2,-7 -3,-14 -11,-15 -8,-1 -15,5 -15,12 -1,8 6,14 12,13 1,0 1,0 2,0z"/>
   <path class="fil1" d="M87 23c2,2 2,2 2,7 0,5 -1,11 5,11 4,0 5,-2 6,-3l0 3 7 0 0 -2c-1,0 -2,0 -2,-2 0,-4 0,-11 0,-15l-7 0 0 1c3,1 2,4 2,8 0,1 0,4 0,5 -1,1 -2,2 -3,2 -3,1 -3,-4 -3,-6 0,-3 0,-7 0,-10l-7 0 0 1z"/>
   <path class="fil1" d="M161 32c0,2 0,4 -1,5 -1,1 -3,2 -4,1 -1,-2 -1,-6 5,-6zm-10 -8l0 4 4 0c0,-2 1,-5 4,-4 2,1 2,4 2,6 -5,1 -12,2 -11,7 1,4 6,5 10,2 1,0 1,-1 2,-1l0 3 6 0 0 -1c-1,-1 -1,0 -2,-3 0,-2 0,-3 0,-5 0,-2 1,-6 -1,-8 -2,-4 -10,-2 -14,0z"/>
   <path class="fil1" d="M116 29c0,-2 0,-5 3,-5 3,0 3,3 3,6l-6 -1zm11 8l-1 -1c-1,0 -3,3 -7,2 -3,-1 -3,-4 -3,-6l11 0c1,-6 -1,-10 -6,-10 -6,-1 -9,2 -10,6 -2,4 -1,10 4,12 3,1 7,1 10,-1 0,0 2,-1 2,-2z"/>
   <path class="fil1" d="M129 23c2,1 2,2 3,4l3 9c0,2 1,3 1,5 5,0 4,0 5,-2l5 -12c1,-1 2,-3 3,-4l0 -1 -7 0 0 1c1,1 2,1 2,3 -1,1 -3,8 -4,9 -1,-1 -1,-2 -1,-3 -1,-1 -1,-2 -1,-3 -2,-6 -1,-4 0,-6l0 -1 -9 0 0 1z"/>
  </g>
  <g id="_1891618634944">
   <path class="fil1" d="M64 31c0,-6 1,-12 5,-14 6,-2 8,5 9,9 0,6 -1,11 -5,13 -3,1 -5,0 -6,-2 -2,-1 -2,-4 -3,-6zm8 10c-1,0 -2,1 -3,1 -3,1 -8,3 -9,6 -1,1 -1,2 0,3 4,1 2,-4 4,-5 1,-1 4,2 5,2 2,1 3,2 6,3 6,1 10,-5 9,-6 -2,-1 -1,1 -3,2 -2,1 -5,-1 -7,-2 -2,-1 -3,-1 -5,-1 6,-3 13,-6 15,-13 2,-7 -3,-14 -11,-15 -8,-1 -15,5 -15,12 -1,8 6,14 12,13 1,0 1,0 2,0z"/>
   <path class="fil1" d="M87 23c2,2 2,2 2,7 0,5 -1,11 5,11 4,0 5,-2 6,-3l0 3 7 0 0 -2c-1,0 -2,0 -2,-2 0,-4 0,-11 0,-15l-7 0 0 1c3,1 2,4 2,8 0,1 0,4 0,5 -1,1 -2,2 -3,2 -3,1 -3,-4 -3,-6 0,-3 0,-7 0,-10l-7 0 0 1z"/>
   <path class="fil1" d="M161 32c0,2 0,4 -1,5 -1,1 -3,2 -4,1 -1,-2 -1,-6 5,-6zm-10 -8l0 4 4 0c0,-2 1,-5 4,-4 2,1 2,4 2,6 -5,1 -12,2 -11,7 1,4 6,5 10,2 1,0 1,-1 2,-1l0 3 6 0 0 -1c-1,-1 -1,0 -2,-3 0,-2 0,-3 0,-5 0,-2 1,-6 -1,-8 -2,-4 -10,-2 -14,0z"/>
   <path class="fil1" d="M116 29c0,-2 0,-5 3,-5 3,0 3,3 3,6l-6 -1zm11 8l-1 -1c-1,0 -3,3 -7,2 -3,-1 -3,-4 -3,-6l11 0c1,-6 -1,-10 -6,-10 -6,-1 -9,2 -10,6 -2,4 -1,10 4,12 3,1 7,1 10,-1 0,0 2,-1 2,-2z"/>
   <path class="fil1" d="M129 23c2,1 2,2 3,4l3 9c0,2 1,3 1,5 5,0 4,0 5,-2l5 -12c1,-1 2,-3 3,-4l0 -1 -7 0 0 1c1,1 2,1 2,3 -1,1 -3,8 -4,9 -1,-1 -1,-2 -1,-3 -1,-1 -1,-2 -1,-3 -2,-6 -1,-4 0,-6l0 -1 -9 0 0 1z"/>
  </g>
 </g>
</svg>
