<?xml version="1.0" encoding="UTF-8"?>
<!DOCTYPE svg PUBLIC "-//W3C//DTD SVG 1.1//EN" "http://www.w3.org/Graphics/SVG/1.1/DTD/svg11.dtd">
<!-- Creator: CorelDRAW X7 -->
<svg xmlns="http://www.w3.org/2000/svg" xml:space="preserve" width="25.4mm" height="8.0552mm" version="1.1" style="shape-rendering:geometricPrecision; text-rendering:geometricPrecision; image-rendering:optimizeQuality; fill-rule:evenodd; clip-rule:evenodd"
viewBox="0 0 105 33"
 xmlns:xlink="http://www.w3.org/1999/xlink">
 <defs>
  <style type="text/css">
   <![CDATA[
    .fil0 {fill:#FFFEFD}
   ]]>
  </style>
 </defs>
 <g id="Layer_x0020_1">
  <metadata id="CorelCorpID_0Corel-Layer"/>
  <g id="_1891661353840">
   <path class="fil0" d="M6 14c0,-5 1,-11 5,-12 5,-2 7,3 8,8 0,5 -1,10 -5,12 -2,1 -5,0 -6,-2 -1,-1 -2,-4 -2,-6zm7 10c-1,0 -2,1 -2,1 -3,1 -8,3 -9,6 -1,1 -1,2 0,2 4,1 2,-3 4,-4 1,-1 4,1 5,2 1,1 3,1 5,2 5,1 9,-4 9,-5 -2,-1 -1,1 -3,2 -2,1 -4,-1 -7,-3 -2,0 -2,0 -5,-1 6,-2 12,-5 14,-11 3,-8 -2,-14 -10,-15 -7,-1 -14,4 -14,11 0,8 6,13 12,13 0,0 1,0 1,0z"/>
   <path class="fil0" d="M27 7c3,1 2,2 2,6 0,5 -1,11 6,11 3,0 4,-2 5,-3l0 3 7 0 0 -2c-2,0 -2,0 -2,-2 0,-4 0,-10 0,-14l-7 0 0 1c2,1 2,3 2,7 0,1 0,4 0,5 -1,1 -2,2 -3,2 -3,1 -3,-3 -3,-6 0,-3 0,-6 0,-9l-7 0 0 1z"/>
   <path class="fil0" d="M98 15c0,2 0,4 -1,5 -1,1 -3,2 -4,1 -1,-1 -1,-6 5,-6zm-10 -7l0 3 4 0c0,-2 1,-4 4,-3 2,0 2,3 2,6 -5,0 -11,1 -11,6 1,4 6,5 10,2 0,0 0,-1 1,-1l0 3 7 0 0 -1c-1,-1 -2,-1 -2,-3 0,-1 0,-3 0,-4 0,-3 0,-6 -1,-8 -2,-4 -10,-2 -14,0z"/>
   <path class="fil0" d="M55 13c0,-2 0,-5 3,-5 2,0 3,3 3,5l-6 0zm10 7l-1 -1c-1,0 -3,3 -6,2 -3,-1 -3,-3 -3,-6l11 0c0,-5 -2,-9 -7,-9 -5,-1 -8,2 -9,6 -1,4 0,9 4,11 3,1 7,1 9,-1 1,0 2,-1 2,-2z"/>
   <path class="fil0" d="M67 7c2,1 2,1 3,4l3 8c0,2 1,3 1,5 4,0 4,0 5,-2l5 -11c0,-2 1,-3 2,-4l0 -1 -6 0 0 1c1,1 1,1 1,3 0,1 -3,7 -3,8 -1,0 -1,-2 -1,-3 -1,-1 -1,-2 -1,-3 -2,-5 -1,-4 0,-5l0 -1 -9 0 0 1z"/>
  </g>
 </g>
</svg>
