<?xml version="1.0" encoding="UTF-8"?>
<!DOCTYPE svg PUBLIC "-//W3C//DTD SVG 1.1//EN" "http://www.w3.org/Graphics/SVG/1.1/DTD/svg11.dtd">
<!-- Creator: CorelDRAW X7 -->
<svg xmlns="http://www.w3.org/2000/svg" xml:space="preserve" width="25.3965mm" height="25.4001mm" version="1.1" style="shape-rendering:geometricPrecision; text-rendering:geometricPrecision; image-rendering:optimizeQuality; fill-rule:evenodd; clip-rule:evenodd"
viewBox="0 0 2540 2540"
 xmlns:xlink="http://www.w3.org/1999/xlink">
 <defs>
  <style type="text/css">
   <![CDATA[
    .fil0 {fill:white}
   ]]>
  </style>
 </defs>
 <g id="Layer_x0020_1">
  <metadata id="CorelCorpID_0Corel-Layer"/>
  <g id="_1891357708704">
   <path class="fil0" d="M314 2232c8,-31 56,-166 70,-207 12,-36 23,-69 35,-105 27,-80 30,-64 7,-98 -72,-105 -135,-237 -163,-389 -117,-615 333,-1185 946,-1232 283,-22 571,73 776,256 197,176 369,456 355,821 -9,226 -94,442 -227,606 -33,41 -95,109 -135,140 -51,41 -98,78 -163,115 -205,115 -438,164 -682,127 -152,-23 -293,-80 -402,-151 -10,-6 -12,-10 -25,-7l-78 26c-36,11 -69,22 -105,33 -35,11 -69,22 -104,33 -26,8 -82,29 -105,32zm-314 308c29,-6 474,-150 512,-162l160 -51c28,-10 25,2 87,30 77,36 160,66 252,87 422,95 798,-33 1057,-237 218,-171 441,-470 469,-884 29,-434 -166,-774 -375,-972 -8,-7 -13,-15 -21,-22 -125,-107 -228,-179 -391,-243 -177,-69 -376,-100 -586,-80 -556,56 -967,461 -1085,945 -76,307 -24,628 129,899 17,31 18,20 5,58 -14,43 -28,84 -43,127 -11,33 -167,484 -170,505z"/>
   <path class="fil0" d="M913 669c-93,10 -114,25 -162,87 -72,91 -83,217 -46,330 35,107 122,223 189,308 35,44 46,53 79,89 105,116 242,211 397,268 66,24 185,71 260,71 36,0 103,-17 134,-31 42,-19 74,-42 100,-68 32,-30 44,-54 56,-110 5,-22 8,-50 6,-74 -2,-26 -20,-31 -41,-42 -63,-30 -168,-84 -226,-107 -63,-25 -67,8 -101,49 -12,15 -24,31 -36,45 -54,60 -42,77 -159,19 -145,-71 -264,-180 -347,-318 -33,-56 -12,-55 29,-105 82,-99 66,-93 9,-225 -17,-40 -32,-77 -49,-117 -20,-47 -30,-76 -92,-69z"/>
  </g>
 </g>
</svg>
