<?xml version="1.0" encoding="UTF-8"?>
<!DOCTYPE svg PUBLIC "-//W3C//DTD SVG 1.1//EN" "http://www.w3.org/Graphics/SVG/1.1/DTD/svg11.dtd">
<!-- Creator: CorelDRAW X7 -->
<svg xmlns="http://www.w3.org/2000/svg" xml:space="preserve" width="16.1816mm" height="12.7mm" version="1.1" style="shape-rendering:geometricPrecision; text-rendering:geometricPrecision; image-rendering:optimizeQuality; fill-rule:evenodd; clip-rule:evenodd"
viewBox="0 0 15 12"
 xmlns:xlink="http://www.w3.org/1999/xlink">
 <defs>
  <style type="text/css">
   <![CDATA[
    .fil0 {fill:#01B0F0}
   ]]>
  </style>
 </defs>
 <g id="Layer_x0020_1">
  <metadata id="CorelCorpID_0Corel-Layer"/>
  <g id="_2362511139888">
   <g id="_2362571262992">
    <path class="fil0" d="M0 3l0 1c0,0 0,0 1,0 0,0 0,0 1,0 0,0 0,0 0,-1 1,0 1,0 1,0 1,-1 2,-1 3,-1 0,0 1,0 1,0 0,0 0,0 0,0 0,0 0,0 1,0 0,0 0,0 0,0 0,0 0,0 0,0 1,0 2,0 3,1 1,0 1,0 2,1 0,0 0,0 1,0 0,0 1,0 1,0 0,-1 0,-1 -1,-1 0,-1 -1,-2 -2,-2 -1,-1 -3,-1 -4,-1 0,0 -1,0 -1,0 0,0 0,0 0,0 0,0 0,0 0,0 -2,0 -4,1 -5,1 0,1 0,1 0,1l-1 1c-1,0 -1,0 -1,0l0 0z"/>
    <path class="fil0" d="M3 6c0,0 1,0 1,0 0,-1 1,-1 1,-1 0,0 1,0 2,0 1,0 1,0 2,0 0,0 0,0 0,0 1,0 1,0 1,0 0,0 0,0 0,0 1,1 1,1 1,1 1,1 2,0 2,-1 -1,0 -1,0 -1,-1 -1,-1 -3,-1 -4,-1 -2,0 -3,0 -5,1 0,0 0,0 0,0 0,1 -1,1 -1,1 0,0 0,0 0,0 0,1 0,1 0,1 0,0 1,0 1,0l0 0z"/>
    <path class="fil0" d="M4 7c0,1 0,1 0,1 1,0 1,0 1,0 1,0 1,0 1,0 0,0 0,0 0,0 1,-1 2,-1 3,0 1,1 2,0 2,-1 0,0 -2,-1 -2,-1 -1,0 -2,0 -3,0 0,0 0,0 0,0 -1,0 -1,0 -2,1 0,0 0,0 0,0l0 0z"/>
    <path class="fil0" d="M7 9c-1,0 -2,2 0,2 1,1 2,0 2,-1 0,0 0,-1 -1,-1 0,0 0,0 -1,0l0 0z"/>
   </g>
  </g>
 </g>
</svg>
